<svg xmlns="http://www.w3.org/2000/svg" viewBox="0 0 1024 1024"><defs><radialGradient id="bg" cx="50%" cy="40%"><stop offset="0%" stop-color="#2a2018"/><stop offset="100%" stop-color="#0a0804"/></radialGradient></defs><rect width="1024" height="1024" rx="32" fill="url(#bg)"/><text x="512" y="115" text-anchor="middle" font-size="64" font-weight="bold" fill="#E8D5B7" font-family="sans-serif">100=百灵</text><text x="512" y="170" text-anchor="middle" font-size="28" fill="#A09080" font-family="sans-serif">1像树枝直直立，0是鸟巢圆圆卧，0是鸟蛋圆圆孵</text><line x1="300" y1="640" x2="724" y2="630" stroke="#6B4030" stroke-width="14" stroke-linecap="round"/><line x1="300" y1="640" x2="724" y2="630" stroke="#8B5A3A" stroke-width="6" stroke-linecap="round"/><ellipse cx="700" cy="630" rx="15" ry="6" fill="#4CAF50" transform="rotate(40 700 630)"/><ellipse cx="310" cy="638" rx="15" ry="6" fill="#4CAF50" transform="rotate(-40 310 638)"/><ellipse cx="512" cy="540" rx="70" ry="28" fill="#8B6540"/><ellipse cx="512" cy="530" rx="62" ry="22" fill="#A07850" opacity="0.5"/><ellipse cx="492" cy="525" rx="14" ry="17" fill="#E8E0D0"/><ellipse cx="492" cy="525" rx="10" ry="13" fill="#F5F0E8" opacity="0.6"/><ellipse cx="522" cy="522" rx="13" ry="16" fill="#E8E0D0"/><ellipse cx="522" cy="522" rx="9" ry="12" fill="#F5F0E8" opacity="0.6"/><ellipse cx="507" cy="510" rx="12" ry="15" fill="#E8E0D0"/><ellipse cx="507" cy="510" rx="8" ry="11" fill="#F5F0E8" opacity="0.6"/><ellipse cx="420" cy="460" rx="28" ry="22" fill="#8B6540"/><circle cx="436" cy="445" r="16" fill="#A07850"/><circle cx="444" cy="442" r="3.5" fill="#2a1810"/><circle cx="445" cy="441" r="1.5" fill="white" opacity="0.6"/><path d="M450 448 L464 445 L450 454Z" fill="#FF9800"/><ellipse cx="410" cy="466" rx="16" ry="9" fill="#6B4030" transform="rotate(-20 410 466)"/><text x="460" y="430" font-size="18" fill="#E8A040" opacity="0.35">♪</text><text x="470" y="410" font-size="16" fill="#E8A040" opacity="0.25">♫</text><circle cx="780" cy="300" r="30" fill="#FFD540" opacity="0.4"/><circle cx="780" cy="300" r="40" fill="#FFD540" opacity="0.12"/><text x="512" y="760" text-anchor="middle" font-size="22" fill="#8BC34A" opacity="0.3">✦ 矢量图组2 · 100张完成 ✦</text></svg>