<svg xmlns="http://www.w3.org/2000/svg" viewBox="0 0 1024 1024">
  <defs>
    <radialGradient id="bg" cx="50%" cy="50%"><stop offset="0%" stop-color="#1a1818"/><stop offset="100%" stop-color="#0a0808"/></radialGradient>
    <linearGradient id="leather" x1="0" y1="0" x2="1" y2="0"><stop offset="0%" stop-color="#5C3A2A"/><stop offset="100%" stop-color="#8B6040"/></linearGradient>
  </defs>
  <rect width="1024" height="1024" rx="32" fill="url(#bg)"/>
  <text x="512" y="115" text-anchor="middle" font-size="64" font-weight="bold" fill="#E8D5B7" font-family="sans-serif">18=腰包</text>
  <text x="512" y="170" text-anchor="middle" font-size="28" fill="#A09080" font-family="sans-serif">1是腰带直直系，8是双包挂两边</text>
  <!-- 腰带 1形 -->
  <rect x="200" y="480" width="624" height="24" rx="8" fill="url(#leather)"/>
  <rect x="210" y="484" width="604" height="16" rx="6" fill="#9B7050" opacity="0.4"/>
  <!-- 腰带头 -->
  <rect x="180" y="474" width="30" height="36" rx="6" fill="#C89830"/>
  <rect x="185" y="478" width="20" height="28" rx="4" fill="#D0A840" opacity="0.6"/>
  <!-- 带孔 -->
  <circle cx="198" cy="492" r="3" fill="#3a2010"/>
  <circle cx="198" cy="504" r="3" fill="#3a2010"/>
  <!-- 包1 8形上圆 -->
  <path d="M280 460 Q280 340 340 330 Q400 320 400 380 Q400 440 340 460Z" fill="#6B4030"/>
  <path d="M290 455 Q290 350 340 340 Q390 332 390 385 Q390 445 340 455Z" fill="#7A5038" opacity="0.6"/>
  <rect x="285" y="420" width="110" height="8" rx="2" fill="#C89830"/>
  <circle cx="340" cy="424" r="5" fill="#A06820"/>
  <!-- 包2 8形下圆 -->
  <path d="M624 480 Q624 370 684 360 Q744 350 744 410 Q744 470 684 480Z" fill="#6B4030"/>
  <path d="M634 475 Q634 378 684 370 Q734 362 734 412 Q734 465 684 475Z" fill="#7A5038" opacity="0.6"/>
  <rect x="629" y="440" width="110" height="8" rx="2" fill="#C89830"/>
  <circle cx="684" cy="444" r="5" fill="#A06820"/>
  <!-- 背带 -->
  <path d="M330 335 Q340 280 370 270 Q400 260 410 300" fill="none" stroke="#4a2810" stroke-width="5" opacity="0.5"/>
  <path d="M680 365 Q690 310 720 300 Q750 290 760 330" fill="none" stroke="#4a2810" stroke-width="5" opacity="0.5"/>
</svg>
