<svg xmlns="http://www.w3.org/2000/svg" viewBox="0 0 1024 1024">
  <defs>
    <radialGradient id="bg" cx="50%" cy="50%"><stop offset="0%" stop-color="#2a1828"/><stop offset="100%" stop-color="#120a14"/></radialGradient>
  </defs>
  <rect width="1024" height="1024" rx="32" fill="url(#bg)"/>
  <text x="512" y="115" text-anchor="middle" font-size="64" font-weight="bold" fill="#E8D5B7" font-family="sans-serif">22=鸳鸯</text>
  <text x="512" y="170" text-anchor="middle" font-size="28" fill="#A09080" font-family="sans-serif">两只鸳鸯对对游，22成双不分离</text>
  <!-- 水面 -->
  <ellipse cx="512" cy="620" rx="350" ry="35" fill="#2a4060" opacity="0.2"/>
  <path d="M200 610 Q350 595 512 608 Q674 621 824 610" fill="none" stroke="#4a7090" stroke-width="1.5" opacity="0.25"/>
  <!-- 左鸳鸯 2形弯颈 -->
  <ellipse cx="380" cy="560" rx="45" ry="35" fill="#8B4513"/>
  <ellipse cx="380" cy="555" rx="38" ry="28" fill="#A0522D"/>
  <!-- 左颈 -->
  <path d="M400 540 Q420 500 400 465 Q385 445 370 440" fill="none" stroke="#A0522D" stroke-width="16" stroke-linecap="round"/>
  <circle cx="365" cy="435" r="16" fill="#A0522D"/>
  <!-- 左眼 -->
  <circle cx="360" cy="432" r="3.5" fill="#1a0800"/>
  <circle cx="359" cy="431" r="1.2" fill="white"/>
  <!-- 左喙 -->
  <path d="M352 440 L340 438 L352 445Z" fill="#E85D3A"/>
  <!-- 左彩羽 -->
  <path d="M345 455 Q330 440 335 425" fill="none" stroke="#4CAF50" stroke-width="5" stroke-linecap="round"/>
  <ellipse cx="338" cy="420" rx="6" ry="4" fill="#FF9800" transform="rotate(-15 338 420)"/>
  <!-- 右鸳鸯 2形 -->
  <ellipse cx="600" cy="555" rx="42" ry="32" fill="#6B3A6B"/>
  <ellipse cx="600" cy="550" rx="35" ry="25" fill="#8B5A8B"/>
  <path d="M580 535 Q560 500 580 465 Q595 448 610 442" fill="none" stroke="#8B5A8B" stroke-width="14" stroke-linecap="round"/>
  <circle cx="616" cy="438" r="15" fill="#8B5A8B"/>
  <circle cx="622" cy="435" r="3.5" fill="#1a0800"/>
  <circle cx="623" cy="434" r="1.2" fill="white"/>
  <path d="M628 443 L640 441 L628 448Z" fill="#E85D3A"/>
  <!-- 右彩羽 -->
  <path d="M635 460 Q648 448 642 432" fill="none" stroke="#FF9800" stroke-width="4" stroke-linecap="round"/>
  <ellipse cx="640" cy="428" rx="5" ry="3.5" fill="#4CAF50" transform="rotate(15 640 428)"/>
  <!-- 爱心 -->
  <path d="M480 500 Q480 485 495 485 Q510 485 510 500 Q510 515 495 520 Q480 515 480 500Z" fill="#E87080" opacity="0.3"/>
  <!-- 倒影 -->
  <ellipse cx="380" cy="605" rx="35" ry="8" fill="#2a4060" opacity="0.15"/>
  <ellipse cx="600" cy="600" rx="32" ry="7" fill="#2a4060" opacity="0.15"/>
</svg>
