<svg xmlns="http://www.w3.org/2000/svg" viewBox="0 0 1024 1024">
  <defs>
    <radialGradient id="bg" cx="50%" cy="50%"><stop offset="0%" stop-color="#1a2840"/><stop offset="100%" stop-color="#081020"/></radialGradient>
  </defs>
  <rect width="1024" height="1024" rx="32" fill="url(#bg)"/>
  <text x="512" y="115" text-anchor="middle" font-size="64" font-weight="bold" fill="#E8D5B7" font-family="sans-serif">35=珊瑚</text>
  <text x="512" y="170" text-anchor="middle" font-size="28" fill="#A09080" font-family="sans-serif">3是珊瑚枝丫丫，5是礁石弯弯绕</text>
  <!-- 海底 -->
  <rect x="0" y="500" width="1024" height="524" fill="#0a1a30" opacity="0.4"/>
  <ellipse cx="512" cy="680" rx="350" ry="50" fill="#1a3050" opacity="0.3"/>
  <!-- 礁石 5形 -->
  <path d="M200 680 Q180 640 250 620 Q300 600 350 630 Q380 650 380 680Z" fill="#3a4050"/>
  <path d="M644 670 Q670 630 720 620 Q760 610 800 630 Q840 650 820 680Z" fill="#4a5060"/>
  <path d="M200 680 Q512 640 824 680" fill="#3a4050" opacity="0.6"/>
  <!-- 珊瑚枝 3形弯 -->
  <path d="M350 630 Q320 560 350 500 Q370 460 340 430" fill="none" stroke="#E87080" stroke-width="10" stroke-linecap="round"/>
  <path d="M350 530 Q380 500 370 460" fill="none" stroke="#E87080" stroke-width="8" stroke-linecap="round"/>
  <path d="M340 480 Q310 450 320 420" fill="none" stroke="#F090A0" stroke-width="6" stroke-linecap="round"/>
  <!-- 右珊瑚 -->
  <path d="M650 630 Q680 550 650 490 Q630 450 660 420" fill="none" stroke="#E87080" stroke-width="9" stroke-linecap="round"/>
  <path d="M650 540 Q620 510 630 470" fill="none" stroke="#F090A0" stroke-width="7" stroke-linecap="round"/>
  <path d="M660 500 Q690 470 680 440" fill="none" stroke="#F090A0" stroke-width="6" stroke-linecap="round"/>
  <!-- 中珊瑚 -->
  <path d="M500 640 Q512 570 500 520 Q490 480 512 440" fill="none" stroke="#D06070" stroke-width="8" stroke-linecap="round"/>
  <path d="M505 540 Q530 510 520 480" fill="none" stroke="#E88090" stroke-width="6" stroke-linecap="round"/>
  <!-- 水草 -->
  <path d="M250 680 Q240 640 255 600 Q265 570 250 540" fill="none" stroke="#3a8040" stroke-width="4" stroke-linecap="round" opacity="0.4"/>
  <path d="M780 680 Q790 630 775 590" fill="none" stroke="#3a8040" stroke-width="3.5" stroke-linecap="round" opacity="0.35"/>
  <!-- 气泡 -->
  <circle cx="320" cy="400" r="3" fill="white" opacity="0.15"/>
  <circle cx="340" cy="380" r="2" fill="white" opacity="0.1"/>
  <circle cx="660" cy="390" r="3" fill="white" opacity="0.12"/>
  <!-- 小鱼 -->
  <ellipse cx="600" cy="550" rx="8" ry="4" fill="#FF9800" opacity="0.3"/>
  <path d="M608 550 L614 547 L614 553Z" fill="#FF9800" opacity="0.3"/>
  <!-- 海星 -->
  <path d="M150 660 L155 650 L160 660 L170 655 L165 665 L175 670 L162 670 L155 680 L148 670 L135 670 L145 665 L140 655Z" fill="#E87080" opacity="0.3"/>
</svg>
