<svg xmlns="http://www.w3.org/2000/svg" viewBox="0 0 1024 1024">
  <defs>
    <radialGradient id="bg" cx="50%" cy="50%"><stop offset="0%" stop-color="#1a1a20"/><stop offset="100%" stop-color="#0a0a10"/></radialGradient>
  </defs>
  <rect width="1024" height="1024" rx="32" fill="url(#bg)"/>
  <text x="512" y="115" text-anchor="middle" font-size="64" font-weight="bold" fill="#E8D5B7" font-family="sans-serif">40=司令</text>
  <text x="512" y="170" text-anchor="middle" font-size="28" fill="#A09080" font-family="sans-serif">4星上将威风凛凛，0号军令一声令下</text>
  <!-- 军帽 -->
  <path d="M360 420 Q360 340 512 320 Q664 340 664 420Z" fill="#3a4a20"/>
  <path d="M370 415 Q370 345 512 328 Q654 345 654 415Z" fill="#4a5a30" opacity="0.5"/>
  <!-- 帽檐 -->
  <ellipse cx="512" cy="420" rx="160" ry="20" fill="#2a3a10"/>
  <ellipse cx="512" cy="418" rx="152" ry="16" fill="#3a4a20"/>
  <!-- 帽徽 -->
  <circle cx="512" cy="360" r="18" fill="#C89830"/>
  <circle cx="512" cy="360" r="12" fill="#D0A840"/>
  <!-- 五星 4+0 -->
  <path d="M512 340 L516 354 L528 354 L518 362 L522 376 L512 368 L502 376 L506 362 L496 354 L508 354Z" fill="#FFD540" opacity="0.9"/>
  <!-- 帽带 -->
  <path d="M385 395 Q512 410 639 395" fill="none" stroke="#C89830" stroke-width="2" opacity="0.5"/>
  <!-- 肩章 -->
  <rect x="340" y="460" width="100" height="20" rx="4" fill="#4a5a30"/>
  <rect x="584" y="460" width="100" height="20" rx="4" fill="#4a5a30"/>
  <!-- 肩星 -->
  <circle cx="365" cy="470" r="4" fill="#FFD540"/>
  <circle cx="385" cy="470" r="4" fill="#FFD540"/>
  <circle cx="405" cy="470" r="4" fill="#FFD540"/>
  <circle cx="425" cy="470" r="4" fill="#FFD540"/>
  <circle cx="599" cy="470" r="4" fill="#FFD540"/>
  <circle cx="619" cy="470" r="4" fill="#FFD540"/>
  <circle cx="639" cy="470" r="4" fill="#FFD540"/>
  <circle cx="659" cy="470" r="4" fill="#FFD540"/>
  <!-- 军服 -->
  <rect x="380" y="470" width="264" height="200" rx="20" fill="#4a5a30"/>
  <rect x="390" y="478" width="244" height="185" rx="16" fill="#5a6a40" opacity="0.4"/>
  <!-- 纽扣 -->
  <circle cx="512" cy="520" r="6" fill="#C89830"/>
  <circle cx="512" cy="560" r="6" fill="#C89830"/>
  <circle cx="512" cy="600" r="6" fill="#C89830"/>
  <!-- 领带 -->
  <path d="M500 460 L512 520 L524 460Z" fill="#3a2a10"/>
  <!-- 勋章 -->
  <rect x="420" y="500" width="30" height="15" rx="2" fill="#C89830" opacity="0.6"/>
  <rect x="574" y="500" width="30" height="15" rx="2" fill="#C89830" opacity="0.6"/>
  <!-- 指挥刀 -->
  <rect x="724" y="500" width="8" height="120" rx="3" fill="#A0A8B0"/>
  <rect x="750" y="580" width="20" height="8" rx="2" fill="#C89830"/>
  <circle cx="728" cy="500" r="8" fill="#C89830"/>
</svg>