<svg xmlns="http://www.w3.org/2000/svg" viewBox="0 0 1024 1024">
  <defs><radialGradient id="bg" cx="50%" cy="50%"><stop offset="0%" stop-color="#1a1a22"/><stop offset="100%" stop-color="#0a0a12"/></radialGradient></defs>
  <rect width="1024" height="1024" rx="32" fill="url(#bg)"/>
  <text x="512" y="115" text-anchor="middle" font-size="64" font-weight="bold" fill="#E8D5B7" font-family="sans-serif">47=司机</text>
  <text x="512" y="170" text-anchor="middle" font-size="28" fill="#A09080" font-family="sans-serif">4个轮子稳稳跑，7字路牌指远方</text>
  <rect x="200" y="550" width="624" height="20" rx="4" fill="#3a3a48"/>
  <rect x="300" y="430" width="424" height="120" rx="18" fill="#4a6080"/>
  <rect x="315" y="445" width="120" height="60" rx="8" fill="#80B0D0" opacity="0.3"/>
  <rect x="445" y="445" width="110" height="90" rx="8" fill="#80B0D0" opacity="0.25"/>
  <rect x="565" y="445" width="144" height="90" rx="8" fill="#80B0D0" opacity="0.2"/>
  <circle cx="340" cy="570" r="28" fill="#1a1a2e"/><circle cx="340" cy="570" r="16" fill="#3a3a4a"/>
  <circle cx="684" cy="570" r="28" fill="#1a1a2e"/><circle cx="684" cy="570" r="16" fill="#3a3a4a"/>
  <circle cx="468" cy="570" r="10" fill="#C89830" opacity="0.4"/>
  <circle cx="556" cy="570" r="10" fill="#C89830" opacity="0.4"/>
  <circle cx="512" cy="390" r="28" fill="#F0C8A0"/>
  <rect x="498" y="420" width="28" height="30" rx="5" fill="#4a6080"/>
  <circle cx="504" cy="382" r="3" fill="#2a1010"/><circle cx="520" cy="382" r="3" fill="#2a1010"/>
  <path d="M506 395 Q512 400 518 395" fill="none" stroke="#D08080" stroke-width="1.5"/>
  <path d="M512 355 Q510 340 512 330" fill="none" stroke="#4a6080" stroke-width="4" stroke-linecap="round"/>
  <rect x="502" y="318" width="20" height="18" rx="4" fill="#4a6080"/>
  <path d="M250 530 Q300 480 350 500 Q400 520 440 480 L450 500 Q400 540 340 515 Q290 490 250 530Z" fill="#6080A0" opacity="0.3"/>
  <text x="340" y="490" font-size="14" fill="white" opacity="0.4">47</text>
</svg>