<svg xmlns="http://www.w3.org/2000/svg" viewBox="0 0 1024 1024">
  <defs><radialGradient id="bg" cx="50%" cy="50%"><stop offset="0%" stop-color="#1a2818"/><stop offset="100%" stop-color="#0a1404"/></radialGradient></defs>
  <rect width="1024" height="1024" rx="32" fill="url(#bg)"/>
  <text x="512" y="115" text-anchor="middle" font-size="64" font-weight="bold" fill="#E8D5B7" font-family="sans-serif">48=丝瓜</text>
  <text x="512" y="170" text-anchor="middle" font-size="28" fill="#A09080" font-family="sans-serif">4月播种绿藤蔓，8字丝瓜长长挂</text>
  <line x1="512" y1="260" x2="512" y2="560" stroke="#5a6a30" stroke-width="4"/>
  <path d="M512 280 Q560 300 580 330" fill="none" stroke="#6a7a40" stroke-width="3"/>
  <path d="M512 320 Q464 340 444 370" fill="none" stroke="#6a7a40" stroke-width="3"/>
  <circle cx="580" cy="330" r="10" fill="#4a6a20" opacity="0.4"/>
  <circle cx="444" cy="370" r="9" fill="#4a6a20" opacity="0.4"/>
  <path d="M520 560 Q530 620 520 680 Q515 710 512 730" fill="none" stroke="#6a8a30" stroke-width="18" stroke-linecap="round"/>
  <path d="M520 560 Q530 620 520 680" fill="none" stroke="#80a840" stroke-width="8" stroke-linecap="round" opacity="0.4"/>
  <path d="M512 730 Q500 770 480 790 Q470 800 480 795" fill="none" stroke="#4a6a20" stroke-width="4" stroke-linecap="round"/>
  <g fill="none" stroke="#5a7a28" stroke-width="1" opacity="0.4">
    <path d="M518 590 L532 595"/><path d="M516 620 L530 625"/>
    <path d="M514 650 L526 655"/><path d="M513 680 L522 685"/>
  </g>
  <circle cx="620" cy="650" r="20" fill="#6a8a30" opacity="0.5"/>
  <circle cx="620" cy="648" r="14" fill="#80a840" opacity="0.4"/>
  <circle cx="620" cy="640" r="3" fill="#FFD540" opacity="0.5"/>
  <circle cx="400" cy="600" r="18" fill="#6a8a30" opacity="0.45"/>
  <circle cx="400" cy="598" r="12" fill="#80a840" opacity="0.35"/>
  <circle cx="400" cy="592" r="3" fill="#FFD540" opacity="0.45"/>
</svg>