<svg xmlns="http://www.w3.org/2000/svg" viewBox="0 0 1024 1024">
  <defs><radialGradient id="bg" cx="50%" cy="50%"><stop offset="0%" stop-color="#2a1a18"/><stop offset="100%" stop-color="#100a08"/></radialGradient></defs>
  <rect width="1024" height="1024" rx="32" fill="url(#bg)"/>
  <text x="512" y="115" text-anchor="middle" font-size="64" font-weight="bold" fill="#E8D5B7" font-family="sans-serif">53=舞伞</text>
  <text x="512" y="170" text-anchor="middle" font-size="28" fill="#A09080" font-family="sans-serif">5人跳舞团团转，3把花伞悠悠旋</text>
  <path d="M320 480 Q512 320 704 480 Q640 500 512 520 Q384 500 320 480Z" fill="#C84840" opacity="0.6"/>
  <path d="M340 478 Q512 330 684 478 Q630 494 512 510 Q394 494 340 478Z" fill="#E86860" opacity="0.35"/>
  <path d="M400 462 Q512 370 624 462" fill="none" stroke="#F08880" stroke-width="1.5" opacity="0.4"/>
  <line x1="512" y1="510" x2="512" y2="660" stroke="#8B6040" stroke-width="6" stroke-linecap="round"/>
  <line x1="512" y1="510" x2="512" y2="660" stroke="#A07050" stroke-width="3" stroke-linecap="round"/>
  <circle cx="512" cy="370" r="5" fill="#D0A040"/>
  <path d="M400 480 Q380 520 370 560" fill="none" stroke="#F0C8A0" stroke-width="5" stroke-linecap="round" opacity="0.5"/>
  <path d="M624 480 Q644 520 654 560" fill="none" stroke="#F0C8A0" stroke-width="5" stroke-linecap="round" opacity="0.5"/>
  <g fill="#FFD540" opacity="0.3"><circle cx="370" cy="500" r="3"/><circle cx="430" cy="470" r="2.5"/><circle cx="594" cy="470" r="2.5"/><circle cx="654" cy="500" r="3"/></g>
</svg>