<svg xmlns="http://www.w3.org/2000/svg" viewBox="0 0 1024 1024">
  <defs><radialGradient id="bg" cx="50%" cy="50%"><stop offset="0%" stop-color="#1a1a22"/><stop offset="100%" stop-color="#0a0a12"/></radialGradient></defs>
  <rect width="1024" height="1024" rx="32" fill="url(#bg)"/>
  <text x="512" y="115" text-anchor="middle" font-size="64" font-weight="bold" fill="#E8D5B7" font-family="sans-serif">54=武士</text>
  <text x="512" y="170" text-anchor="middle" font-size="28" fill="#A09080" font-family="sans-serif">5岁习武立立正，4海为士威威风</text>
  <circle cx="512" cy="350" r="28" fill="#F0C8A0"/>
  <path d="M484 610 L484 490 Q484 420 512 400 Q540 420 540 490 L540 610" fill="#5a6a80"/>
  <path d="M494 600 L494 490 Q494 430 512 412 Q530 430 530 490 L530 600" fill="#6a7a90" opacity="0.4"/>
  <rect x="450" y="450" width="124" height="8" rx="3" fill="#C89830" opacity="0.5"/>
  <circle cx="470" cy="454" r="4" fill="#FFD540"/><circle cx="512" cy="454" r="4" fill="#FFD540"/><circle cx="554" cy="454" r="4" fill="#FFD540"/>
  <path d="M484 490 L445 540 L450 550 L484 510Z" fill="#5a6a80"/>
  <path d="M540 490 L579 540 L574 550 L540 510Z" fill="#5a6a80"/>
  <rect x="470" y="610" width="84" height="30" rx="6" fill="#4a5a70"/>
  <rect x="484" y="640" width="14" height="40" rx="4" fill="#3a4a60"/><rect x="526" y="640" width="14" height="40" rx="4" fill="#3a4a60"/>
  <rect x="490" y="310" width="44" height="12" rx="4" fill="#5a6a80"/>
  <path d="M584 500 L620 440" stroke="#A0A8B0" stroke-width="4" stroke-linecap="round"/>
  <rect x="610" y="420" width="30" height="10" rx="3" fill="#A0A8B0"/>
  <line x1="520" y1="400" x2="590" y2="440" stroke="#5a6a80" stroke-width="2" opacity="0.4"/>
</svg>