<svg xmlns="http://www.w3.org/2000/svg" viewBox="0 0 1024 1024">
  <defs><radialGradient id="bg" cx="50%" cy="50%"><stop offset="0%" stop-color="#2a1a10"/><stop offset="100%" stop-color="#100a04"/></radialGradient></defs>
  <rect width="1024" height="1024" rx="32" fill="url(#bg)"/>
  <text x="512" y="115" text-anchor="middle" font-size="64" font-weight="bold" fill="#E8D5B7" font-family="sans-serif">55=锣鼓</text>
  <text x="512" y="170" text-anchor="middle" font-size="28" fill="#A09080" font-family="sans-serif">5像鼓身圆圆立，5像锣面圆圆敲</text>
  <ellipse cx="360" cy="580" rx="90" ry="25" fill="#6a3a20"/>
  <ellipse cx="360" cy="550" rx="95" ry="28" fill="#8B5030"/>
  <rect x="265" y="400" width="190" height="150" rx="8" fill="#A06030"/>
  <ellipse cx="360" cy="400" rx="95" ry="28" fill="#C08040"/>
  <ellipse cx="360" cy="400" rx="85" ry="22" fill="#D8A060" opacity="0.5"/>
  <ellipse cx="360" cy="400" rx="30" ry="10" fill="#A06030" opacity="0.6"/>
  <ellipse cx="360" cy="550" rx="80" ry="22" fill="#D8A060" opacity="0.4"/>
  <g stroke="#D0C860" stroke-width="2" opacity="0.4">
    <line x1="265" y1="430" x2="455" y2="430"/><line x1="265" y1="460" x2="455" y2="460"/><line x1="265" y1="490" x2="455" y2="490"/>
  </g>
  <circle cx="640" cy="480" r="80" fill="#C89830"/><circle cx="640" cy="480" r="68" fill="#D8B048" opacity="0.5"/>
  <circle cx="640" cy="480" r="50" fill="#E8C860" opacity="0.3"/>
  <circle cx="640" cy="480" r="20" fill="#FFD540" opacity="0.2"/>
  <line x1="640" y1="380" x2="640" y2="340" stroke="#8B6040" stroke-width="6"/>
  <circle cx="640" cy="335" r="8" fill="#8B6040"/>
  <path d="M580 480 L540 480" stroke="#8B6040" stroke-width="6"/>
  <circle cx="535" cy="480" r="8" fill="#8B6040"/>
  <g stroke="#E8B840" stroke-width="1.5" opacity="0.3">
    <path d="M500 400 Q510 395 520 400"/><path d="M720 450 Q730 445 740 450"/>
  </g>
  <text x="160" y="750" font-size="14" fill="#A09080" opacity="0.2">咚咚锵 · 咚咚锵</text>
</svg>