<svg xmlns="http://www.w3.org/2000/svg" viewBox="0 0 1024 1024"><defs><radialGradient id="bg" cx="50%" cy="50%"><stop offset="0%" stop-color="#1a2818"/><stop offset="100%" stop-color="#0a1404"/></radialGradient></defs><rect width="1024" height="1024" rx="32" fill="url(#bg)"/><text x="512" y="115" text-anchor="middle" font-size="64" font-weight="bold" fill="#E8D5B7" font-family="sans-serif">56=蜗牛</text><text x="512" y="170" text-anchor="middle" font-size="28" fill="#A09080" font-family="sans-serif">5是蜗壳旋旋转，6是触角弯弯探</text><ellipse cx="512" cy="700" rx="300" ry="20" fill="#0a0804" opacity="0.3"/><path d="M360 680 Q320 640 340 600 Q360 560 400 550 Q440 540 460 570 Q480 600 440 620 Q400 640 360 680Z" fill="#A08060" opacity="0.4"/><circle cx="540" cy="480" r="70" fill="#C89830"/><circle cx="540" cy="480" r="58" fill="#D8B048" opacity="0.5"/><path d="M540 410 Q585 430 570 480 Q555 530 540 550" fill="none" stroke="#B08020" stroke-width="3" opacity="0.4"/><circle cx="570" cy="440" r="10" fill="#E8C860" opacity="0.3"/><ellipse cx="480" cy="540" rx="30" ry="15" fill="#C8A860" opacity="0.5"/><circle cx="450" cy="530" r="8" fill="#2a1a08"/><circle cx="448" cy="528" r="3" fill="white" opacity="0.6"/><path d="M445 540 Q435 535 430 545" fill="none" stroke="#C8A860" stroke-width="3"/><g fill="none" stroke="#C8A860" stroke-width="2" opacity="0.5"><path d="M440 520 Q430 515 425 525"/><path d="M442 515 Q432 508 428 518"/></g></svg>