<svg xmlns="http://www.w3.org/2000/svg" viewBox="0 0 1024 1024"><defs><radialGradient id="bg" cx="50%" cy="50%"><stop offset="0%" stop-color="#2a2010"/><stop offset="100%" stop-color="#100a04"/></radialGradient></defs><rect width="1024" height="1024" rx="32" fill="url(#bg)"/><text x="512" y="115" text-anchor="middle" font-size="64" font-weight="bold" fill="#E8D5B7" font-family="sans-serif">57=母鸡</text><text x="512" y="170" text-anchor="middle" font-size="28" fill="#A09080" font-family="sans-serif">5只母鸡咯咯叫，7个鸡蛋窝里卧</text><ellipse cx="512" cy="700" rx="200" ry="18" fill="#0a0804" opacity="0.3"/><ellipse cx="480" cy="540" rx="65" ry="50" fill="#D0B070"/><ellipse cx="480" cy="535" rx="52" ry="40" fill="#E0C080" opacity="0.5"/><circle cx="430" cy="490" r="22" fill="#D0B070"/><circle cx="427" cy="487" r="17" fill="#E0C080" opacity="0.4"/><circle cx="420" cy="482" r="3.5" fill="#2a1a04"/><path d="M410 495 L398 492" stroke="#FF9800" stroke-width="3"/><path d="M420 502 L405 505" stroke="#FF9800" stroke-width="2"/><path d="M425 465 Q420 450 430 440" fill="none" stroke="#E85D3A" stroke-width="5"/><ellipse cx="432" cy="436" rx="6" ry="4" fill="#E85D3A"/><path d="M520 540 Q550 520 560 560 Q565 580 540 590" fill="none" stroke="#B89850" stroke-width="6"/><g fill="#F5F0E0" opacity="0.7"><ellipse cx="600" cy="620" rx="16" ry="12"/><ellipse cx="580" cy="635" rx="15" ry="11"/><ellipse cx="620" cy="645" rx="14" ry="10"/><ellipse cx="560" cy="650" rx="16" ry="12"/><ellipse cx="595" cy="660" rx="15" ry="11"/><ellipse cx="635" cy="630" rx="14" ry="10"/><ellipse cx="575" cy="615" rx="13" ry="9"/></g><rect x="450" y="630" width="6" height="30" rx="3" fill="#FF9800"/><rect x="480" y="630" width="6" height="30" rx="3" fill="#FF9800"/></svg>