<svg xmlns="http://www.w3.org/2000/svg" viewBox="0 0 1024 1024"><defs><radialGradient id="bg" cx="50%" cy="50%"><stop offset="0%" stop-color="#1a1a18"/><stop offset="100%" stop-color="#0a0a08"/></radialGradient></defs><rect width="1024" height="1024" rx="32" fill="url(#bg)"/><text x="512" y="115" text-anchor="middle" font-size="64" font-weight="bold" fill="#E8D5B7" font-family="sans-serif">58=尾巴</text><text x="512" y="170" text-anchor="middle" font-size="28" fill="#A09080" font-family="sans-serif">5寸短尾翘翘，8寸长毛飘飘</text><ellipse cx="400" cy="500" rx="80" ry="55" fill="#D0A870"/><ellipse cx="400" cy="495" rx="65" ry="42" fill="#E0B880" opacity="0.5"/><circle cx="340" cy="440" r="24" fill="#D0A870"/><circle cx="338" cy="436" r="18" fill="#E0B880" opacity="0.4"/><circle cx="330" cy="432" r="3" fill="#1a0a00"/><circle cx="340" cy="430" r="1.5" fill="white" opacity="0.5"/><path d="M330 445 L318 442" stroke="#3a2010" stroke-width="2"/><path d="M325 450 L315 450" stroke="#3a2010" stroke-width="1.5"/><path d="M410 540 Q420 580 440 620 Q460 660 450 690 Q440 720 460 750" fill="none" stroke="#D0A870" stroke-width="14" stroke-linecap="round"/><path d="M410 540 Q420 580 440 620 Q460 660 450 690 Q440 720 460 750" fill="none" stroke="#E0B880" stroke-width="6" stroke-linecap="round" opacity="0.4"/><g stroke="#C89860" stroke-width="2" opacity="0.4"><path d="M430 600 Q440 590 450 595"/><path d="M445 640 Q455 630 465 635"/><path d="M442 695 Q452 685 458 692"/></g><rect x="380" y="590" width="8" height="30" rx="3" fill="#8B6040"/><rect x="410" y="590" width="8" height="30" rx="3" fill="#8B6040"/></svg>