<svg xmlns="http://www.w3.org/2000/svg" viewBox="0 0 1024 1024"><defs><radialGradient id="bg" cx="50%" cy="40%"><stop offset="0%" stop-color="#1a1a30"/><stop offset="100%" stop-color="#080818"/></radialGradient></defs><rect width="1024" height="1024" rx="32" fill="url(#bg)"/><text x="512" y="115" text-anchor="middle" font-size="64" font-weight="bold" fill="#E8D5B7" font-family="sans-serif">59=五角星</text><text x="512" y="170" text-anchor="middle" font-size="28" fill="#A09080" font-family="sans-serif">5个尖角闪闪亮，9在夜空耀耀明</text><path d="M512 260 L548 380 L668 380 L572 450 L608 570 L512 500 L416 570 L452 450 L356 380 L476 380Z" fill="#FFD540" opacity="0.7"/><path d="M512 280 L540 380 L640 380 L560 440 L592 540 L512 480 L432 540 L464 440 L384 380 L484 380Z" fill="#FFE880" opacity="0.3"/><circle cx="512" cy="410" r="20" fill="#FFD540" opacity="0.3"/><g fill="white" opacity="0.15"><circle cx="200" cy="250" r="2"/><circle cx="700" cy="220" r="1.5"/><circle cx="350" cy="200" r="1"/><circle cx="800" cy="300" r="1.5"/><circle cx="250" cy="350" r="1"/></g><path d="M512 570 L512 640" stroke="#FFD540" stroke-width="3" opacity="0.25"/><line x1="480" y1="610" x2="544" y2="610" stroke="#FFD540" stroke-width="2" opacity="0.2"/><text x="512" y="670" text-anchor="middle" font-size="16" fill="#FFD540" opacity="0.2">★ · · ★ · · ★</text></svg>