<svg xmlns="http://www.w3.org/2000/svg" viewBox="0 0 1024 1024"><defs><radialGradient id="bg" cx="50%" cy="50%"><stop offset="0%" stop-color="#1a2018"/><stop offset="100%" stop-color="#0a1004"/></radialGradient></defs><rect width="1024" height="1024" rx="32" fill="url(#bg)"/><text x="512" y="115" text-anchor="middle" font-size="64" font-weight="bold" fill="#E8D5B7" font-family="sans-serif">60=榴莲</text><text x="512" y="170" text-anchor="middle" font-size="28" fill="#A09080" font-family="sans-serif">6月榴莲圆滚滚，0是裂口香喷喷</text><ellipse cx="460" cy="520" rx="95" ry="80" fill="#7a6a18"/><ellipse cx="460" cy="515" rx="82" ry="66" fill="#9a8a28" opacity="0.5"/><ellipse cx="440" cy="495" rx="18" ry="30" fill="#B0A040" opacity="0.2" transform="rotate(-10 440 495)"/><g stroke="#5a4a08" stroke-width="2.5" stroke-linecap="round" opacity="0.5"><path d="M370 510 Q385 495 400 520"/><path d="M390 480 Q405 465 415 485"/><path d="M420 460 Q438 445 445 465"/><path d="M460 455 Q475 440 485 462"/><path d="M500 460 Q518 448 522 470"/><path d="M530 480 Q545 468 550 490"/><path d="M545 515 Q562 505 555 528"/><path d="M535 555 Q550 565 542 580"/><path d="M500 585 Q510 600 498 608"/><path d="M455 590 Q458 608 445 610"/><path d="M410 575 Q400 590 388 582"/><path d="M380 550 Q365 560 372 540"/></g><path d="M440 560 Q460 580 480 560 Q470 590 440 560Z" fill="#D0A830" opacity="0.4"/><circle cx="448" cy="565" r="4" fill="#E8C048" opacity="0.5"/><circle cx="465" cy="568" r="3.5" fill="#E8C048" opacity="0.4"/><rect x="446" y="448" width="28" height="18" rx="4" fill="#4a3a04"/></svg>