<svg xmlns="http://www.w3.org/2000/svg" viewBox="0 0 1024 1024"><defs><radialGradient id="bg" cx="50%" cy="50%"><stop offset="0%" stop-color="#1a1a28"/><stop offset="100%" stop-color="#0a0a14"/></radialGradient></defs><rect width="1024" height="1024" rx="32" fill="url(#bg)"/><text x="512" y="115" text-anchor="middle" font-size="64" font-weight="bold" fill="#E8D5B7" font-family="sans-serif">61=轮椅</text><text x="512" y="170" text-anchor="middle" font-size="28" fill="#A09080" font-family="sans-serif">6旬老人坐推车，1张轮椅稳稳行</text><circle cx="340" cy="530" r="40" fill="#505860" opacity="0.5"/><circle cx="340" cy="530" r="22" fill="#606870"/><circle cx="684" cy="530" r="40" fill="#505860" opacity="0.5"/><circle cx="684" cy="530" r="22" fill="#606870"/><rect x="310" y="420" width="60" height="110" rx="8" fill="#4a6080"/><rect x="654" y="420" width="60" height="110" rx="8" fill="#4a6080"/><rect x="330" y="400" width="364" height="30" rx="8" fill="#5a7080"/><rect x="310" y="490" width="24" height="80" rx="6" fill="#4a6080"/><rect x="430" y="340" width="164" height="100" rx="12" fill="#3a5060"/><rect x="440" y="350" width="144" height="80" rx="8" fill="#4a6070" opacity="0.4"/><rect x="440" y="320" width="144" height="25" rx="8" fill="#3a5060"/><circle cx="720" cy="380" r="18" fill="#3a5060"/><path d="M720 398 L720 440" stroke="#3a5060" stroke-width="5"/><path d="M500 340 Q520 380 540 420" fill="none" stroke="#F0C8A0" stroke-width="10" stroke-linecap="round"/><circle cx="505" cy="325" r="14" fill="#F0C8A0"/></svg>