<svg xmlns="http://www.w3.org/2000/svg" viewBox="0 0 1024 1024"><defs><radialGradient id="bg" cx="50%" cy="50%"><stop offset="0%" stop-color="#1a2818"/><stop offset="100%" stop-color="#0a1404"/></radialGradient></defs><rect width="1024" height="1024" rx="32" fill="url(#bg)"/><text x="512" y="115" text-anchor="middle" font-size="64" font-weight="bold" fill="#E8D5B7" font-family="sans-serif">62=鹿儿</text><text x="512" y="170" text-anchor="middle" font-size="28" fill="#A09080" font-family="sans-serif">6叉鹿角高高翘，2只鹿儿轻轻跳</text><ellipse cx="512" cy="700" rx="250" ry="18" fill="#0a0804" opacity="0.3"/><ellipse cx="450" cy="540" rx="50" ry="38" fill="#C89860"/><ellipse cx="450" cy="535" rx="40" ry="30" fill="#D8B070" opacity="0.4"/><rect x="430" y="570" width="8" height="40" rx="3" fill="#A07840"/><rect x="460" y="570" width="8" height="40" rx="3" fill="#A07840"/><circle cx="400" cy="490" r="22" fill="#C89860"/><circle cx="398" cy="486" r="16" fill="#D8B070" opacity="0.4"/><circle cx="388" cy="482" r="3.5" fill="#1a0a00"/><circle cx="386" cy="480" r="1.5" fill="white" opacity="0.6"/><path d="M380 494 L365 498" stroke="#A07840" stroke-width="2"/><path d="M425 460 Q415 440 430 420 Q445 410 460 415" fill="none" stroke="#8B5A30" stroke-width="5" stroke-linecap="round"/><path d="M435 455 Q430 445 438 435 Q448 430 455 440" fill="none" stroke="#A07040" stroke-width="3.5" stroke-linecap="round"/><ellipse cx="555" cy="555" rx="38" ry="30" fill="#D8B070"/><ellipse cx="555" cy="550" rx="30" ry="22" fill="#E8C880" opacity="0.4"/><rect x="540" y="580" width="6" height="35" rx="3" fill="#B08050"/><rect x="562" y="580" width="6" height="35" rx="3" fill="#B08050"/><circle cx="570" cy="510" r="18" fill="#D8B070"/><circle cx="568" cy="507" r="13" fill="#E8C880" opacity="0.4"/><circle cx="578" cy="505" r="3" fill="#1a0a00"/><path d="M580 510 Q590 505 595 510" fill="none" stroke="#B08050" stroke-width="2"/><path d="M540 440 Q530 425 540 410" fill="none" stroke="#8B5A30" stroke-width="3.5" stroke-linecap="round"/></svg>