<svg xmlns="http://www.w3.org/2000/svg" viewBox="0 0 1024 1024"><defs><radialGradient id="bg" cx="50%" cy="50%"><stop offset="0%" stop-color="#2a1a28"/><stop offset="100%" stop-color="#100a14"/></radialGradient></defs><rect width="1024" height="1024" rx="32" fill="url(#bg)"/><text x="512" y="115" text-anchor="middle" font-size="64" font-weight="bold" fill="#E8D5B7" font-family="sans-serif">63=绿伞</text><text x="512" y="170" text-anchor="middle" font-size="28" fill="#A09080" font-family="sans-serif">6月撑伞遮遮阳，3折收伞轻轻便</text><path d="M310 520 Q512 280 714 520 Q610 545 512 575 Q414 545 310 520Z" fill="#388E3C" opacity="0.5"/><path d="M330 520 Q512 300 694 520 Q600 540 512 565 Q424 540 330 520Z" fill="#4CAF50" opacity="0.3"/><path d="M400 505 Q512 360 624 505" fill="none" stroke="#66BB6A" stroke-width="1.5" opacity="0.35"/><line x1="512" y1="565" x2="512" y2="680" stroke="#6B4030" stroke-width="8" stroke-linecap="round"/><line x1="512" y1="565" x2="512" y2="680" stroke="#8B5A3A" stroke-width="3" stroke-linecap="round"/><circle cx="512" cy="380" r="6" fill="#8B5A3A"/><path d="M512 565 Q510 520 515 480" fill="none" stroke="#388E3C" stroke-width="2" opacity="0.5"/><circle cx="515" cy="470" r="3" fill="#388E3C" opacity="0.5"/><circle cx="518" cy="450" r="2.5" fill="#388E3C" opacity="0.4"/><circle cx="480" cy="510" r="2.5" fill="#66BB6A" opacity="0.3"/><circle cx="545" cy="515" r="2" fill="#66BB6A" opacity="0.3"/></svg>