<svg xmlns="http://www.w3.org/2000/svg" viewBox="0 0 1024 1024"><defs><radialGradient id="bg" cx="50%" cy="50%"><stop offset="0%" stop-color="#1a2818"/><stop offset="100%" stop-color="#0a1404"/></radialGradient></defs><rect width="1024" height="1024" rx="32" fill="url(#bg)"/><text x="512" y="115" text-anchor="middle" font-size="64" font-weight="bold" fill="#E8D5B7" font-family="sans-serif">64=柳丝</text><text x="512" y="170" text-anchor="middle" font-size="28" fill="#A09080" font-family="sans-serif">6月柳树垂垂绿，4方丝绦柔柔飘</text><rect x="496" y="280" width="32" height="120" rx="6" fill="#5a3a20"/><rect x="500" y="280" width="8" height="120" fill="#7a5030" opacity="0.4"/><path d="M470 320 Q420 300 380 330" fill="none" stroke="#5a3a20" stroke-width="5" stroke-linecap="round"/><path d="M554 340 Q600 310 650 320" fill="none" stroke="#5a3a20" stroke-width="4" stroke-linecap="round"/><g stroke="#4CAF50" fill="none" stroke-linecap="round" opacity="0.6"><path d="M380 340 Q370 450 360 560" stroke-width="3"/><path d="M400 330 Q395 460 385 580" stroke-width="2.5"/><path d="M430 320 Q430 450 420 570" stroke-width="2.5"/><path d="M470 335 Q472 470 465 590" stroke-width="2"/><path d="M510 390 Q512 480 508 600" stroke-width="3"/><path d="M540 345 Q545 470 538 590" stroke-width="2.5"/><path d="M570 338 Q578 450 572 580" stroke-width="2.5"/><path d="M600 325 Q608 440 600 560" stroke-width="2"/><path d="M640 320 Q645 420 635 550" stroke-width="2"/></g><g fill="#81C784" opacity="0.4"><ellipse cx="360" cy="560" rx="4" ry="8" transform="rotate(-15 360 560)"/><ellipse cx="465" cy="590" rx="3.5" ry="7"/><ellipse cx="508" cy="600" rx="4" ry="8"/><ellipse cx="572" cy="580" rx="3.5" ry="7" transform="rotate(10 572 580)"/></g></svg>