<svg xmlns="http://www.w3.org/2000/svg" viewBox="0 0 1024 1024"><defs><radialGradient id="bg" cx="50%" cy="50%"><stop offset="0%" stop-color="#1a1810"/><stop offset="100%" stop-color="#0a0804"/></radialGradient></defs><rect width="1024" height="1024" rx="32" fill="url(#bg)"/><text x="512" y="115" text-anchor="middle" font-size="64" font-weight="bold" fill="#E8D5B7" font-family="sans-serif">65=老屋</text><text x="512" y="170" text-anchor="middle" font-size="28" fill="#A09080" font-family="sans-serif">6旬老人住老屋，5间瓦房静静立</text><rect x="280" y="440" width="464" height="30" rx="4" fill="#5a4a3a"/><rect x="300" y="320" width="424" height="150" rx="8" fill="#7a6a5a"/><rect x="310" y="335" width="120" height="120" rx="6" fill="#3a3028" opacity="0.5"/><rect x="450" y="335" width="100" height="120" rx="6" fill="#3a3028" opacity="0.5"/><rect x="570" y="335" width="140" height="120" rx="6" fill="#3a3028" opacity="0.5"/><rect x="320" y="355" width="100" height="90" rx="4" fill="#FFE8B0" opacity="0.12"/><rect x="460" y="355" width="80" height="90" rx="4" fill="#FFE8B0" opacity="0.12"/><rect x="580" y="355" width="120" height="90" rx="4" fill="#FFE8B0" opacity="0.1"/><path d="M280 340 L512 240 L744 340Z" fill="#4a3a2a"/><path d="M300 340 L512 255 L724 340Z" fill="#5a4a3a" opacity="0.5"/><rect x="460" y="440" width="30" height="60" rx="4" fill="#4a3a2a"/><circle cx="484" cy="465" r="3" fill="#C89830" opacity="0.5"/><rect x="500" y="380" width="60" height="60" rx="8" fill="#5a4a3a"/><path d="M530 380 L530 440" stroke="#8B7a6a" stroke-width="1.5" opacity="0.5"/><path d="M500 410 L560 410" stroke="#8B7a6a" stroke-width="1.5" opacity="0.5"/><path d="M300 310 L300 290 Q330 280 340 300" fill="none" stroke="#5a4a3a" stroke-width="2" opacity="0.4"/></svg>