<svg xmlns="http://www.w3.org/2000/svg" viewBox="0 0 1024 1024"><defs><radialGradient id="bg" cx="50%" cy="50%"><stop offset="0%" stop-color="#1a1a28"/><stop offset="100%" stop-color="#0a0a18"/></radialGradient></defs><rect width="1024" height="1024" rx="32" fill="url(#bg)"/><text x="512" y="115" text-anchor="middle" font-size="64" font-weight="bold" fill="#E8D5B7" font-family="sans-serif">66=溜溜球</text><text x="512" y="170" text-anchor="middle" font-size="28" fill="#A09080" font-family="sans-serif">6像绳绕溜溜转，6是球弹溜溜圆</text><circle cx="512" cy="480" r="80" fill="#E85D3A"/><circle cx="512" cy="480" r="68" fill="#F08060" opacity="0.5"/><circle cx="512" cy="480" r="50" fill="#F8A090" opacity="0.35"/><circle cx="492" cy="460" r="12" fill="white" opacity="0.15"/><ellipse cx="512" cy="480" rx="70" ry="18" fill="#C04030" opacity="0.3"/><circle cx="512" cy="360" r="10" fill="#505860"/><path d="M512 370 Q530 420 512 480 Q494 540 512 590" fill="none" stroke="#8890A0" stroke-width="3" opacity="0.5"/><path d="M512 360 L530 340" stroke="#505860" stroke-width="6" stroke-linecap="round"/><ellipse cx="540" cy="330" rx="16" ry="10" fill="#505860" transform="rotate(-20 540 330)"/><g opacity="0.3"><circle cx="460" cy="410" r="3" fill="white"/><circle cx="560" cy="430" r="2.5" fill="white"/><circle cx="490" cy="530" r="2" fill="white"/></g><text x="640" y="500" font-size="18" fill="#F08060" opacity="0.25">↻</text></svg>