<svg xmlns="http://www.w3.org/2000/svg" viewBox="0 0 1024 1024"><defs><radialGradient id="bg" cx="50%" cy="50%"><stop offset="0%" stop-color="#1a1818"/><stop offset="100%" stop-color="#0a0808"/></radialGradient></defs><rect width="1024" height="1024" rx="32" fill="url(#bg)"/><text x="512" y="115" text-anchor="middle" font-size="64" font-weight="bold" fill="#E8D5B7" font-family="sans-serif">67=油漆</text><text x="512" y="170" text-anchor="middle" font-size="28" fill="#A09080" font-family="sans-serif">6桶油漆圆滚滚，7把刷子刷刷涂</text><ellipse cx="380" cy="580" rx="55" ry="20" fill="#4a4040"/><ellipse cx="380" cy="540" rx="55" ry="60" fill="#8088A0"/><ellipse cx="380" cy="535" rx="48" ry="52" fill="#A0A8C0" opacity="0.5"/><ellipse cx="380" cy="500" rx="38" ry="12" fill="#606870"/><rect x="360" y="440" width="40" height="20" rx="4" fill="#707880"/><path d="M560 460 Q550 400 570 360 Q590 340 610 360" fill="none" stroke="#A07040" stroke-width="12" stroke-linecap="round"/><path d="M570 360 Q580 350 610 360" fill="none" stroke="#A07040" stroke-width="10" stroke-linecap="round"/><path d="M620 360 L660 380" stroke="#A07040" stroke-width="6" stroke-linecap="round"/><rect x="620" y="370" width="50" height="20" rx="3" fill="#C08050"/><rect x="660" y="365" width="60" height="10" rx="3" fill="#C08050"/><path d="M660 370 L720 400" stroke="#E8A040" stroke-width="4" opacity="0.6"/><path d="M700 385 L740 410" stroke="#E8A040" stroke-width="3" opacity="0.4"/><circle cx="450" cy="650" r="15" fill="#E8A040" opacity="0.3"/><circle cx="600" cy="660" r="12" fill="#80A8D0" opacity="0.25"/><circle cx="520" cy="670" r="10" fill="#E87080" opacity="0.2"/></svg>