<svg xmlns="http://www.w3.org/2000/svg" viewBox="0 0 1024 1024"><defs><radialGradient id="bg" cx="50%" cy="50%"><stop offset="0%" stop-color="#1a1a22"/><stop offset="100%" stop-color="#0a0a12"/></radialGradient></defs><rect width="1024" height="1024" rx="32" fill="url(#bg)"/><text x="512" y="115" text-anchor="middle" font-size="64" font-weight="bold" fill="#E8D5B7" font-family="sans-serif">68=喇叭</text><text x="512" y="170" text-anchor="middle" font-size="28" fill="#A09080" font-family="sans-serif">6寸喇叭圆圆口，8度嘹亮声声扬</text><ellipse cx="512" cy="500" rx="130" ry="45" fill="#D0A830" opacity="0.7"/><ellipse cx="512" cy="500" rx="118" ry="38" fill="#E8C048" opacity="0.4"/><ellipse cx="512" cy="500" rx="90" ry="28" fill="#C89830" opacity="0.5"/><ellipse cx="512" cy="500" rx="30" ry="10" fill="#1a1a1a"/><path d="M500 500 L400 500 Q380 500 370 510 Q360 520 370 525 Q380 530 400 530 L524 530" fill="#D0A830"/><path d="M505 500 L405 500 Q390 500 385 508 Q380 515 388 520 Q395 525 410 525 L519 525" fill="#E8C048" opacity="0.3"/><rect x="350" y="508" width="20" height="14" rx="3" fill="#B08020"/><rect x="340" y="510" width="15" height="10" rx="2" fill="#B08020"/><g fill="none" stroke="#E8C048" stroke-width="2" opacity="0.35"><path d="M660 480 Q690 470 710 455"/><path d="M670 500 Q705 495 730 485"/><path d="M660 520 Q690 525 710 540"/></g><text x="230" y="480" font-size="16" fill="#E8A040" opacity="0.25">♪</text><text x="210" y="510" font-size="14" fill="#E8A040" opacity="0.2">♫</text><text x="245" y="540" font-size="12" fill="#E8A040" opacity="0.15">♪</text></svg>