<svg xmlns="http://www.w3.org/2000/svg" viewBox="0 0 1024 1024"><defs><radialGradient id="bg" cx="50%" cy="50%"><stop offset="0%" stop-color="#1a2018"/><stop offset="100%" stop-color="#0a1004"/></radialGradient></defs><rect width="1024" height="1024" rx="32" fill="url(#bg)"/><text x="512" y="115" text-anchor="middle" font-size="64" font-weight="bold" fill="#E8D5B7" font-family="sans-serif">69=鹿角</text><text x="512" y="170" text-anchor="middle" font-size="28" fill="#A09080" font-family="sans-serif">6叉鹿角分分翘，9是弯角高高扬</text><ellipse cx="512" cy="680" rx="180" ry="15" fill="#0a0800" opacity="0.3"/><rect x="500" y="400" width="24" height="200" rx="6" fill="#6B4030"/><rect x="504" y="400" width="8" height="200" fill="#8B5A3A" opacity="0.4"/><path d="M500 420 Q460 380 440 340 Q430 310 450 290 Q460 300 455 330 Q450 370 490 410" fill="#8B5A3A"/><path d="M500 400 Q470 360 460 320 Q455 295 470 280 Q478 290 472 315 Q465 355 495 390" fill="#A07040" opacity="0.5"/><path d="M495 390 Q460 370 450 350 Q445 335 452 325" fill="none" stroke="#6B4030" stroke-width="4" stroke-linecap="round"/><path d="M524 420 Q560 380 580 340 Q590 310 570 290 Q560 300 565 330 Q570 370 530 410" fill="#8B5A3A"/><path d="M524 400 Q554 360 564 320 Q569 295 554 280 Q546 290 552 315 Q558 355 528 390" fill="#A07040" opacity="0.5"/><path d="M529 390 Q564 370 574 350 Q579 335 572 325" fill="none" stroke="#6B4030" stroke-width="4" stroke-linecap="round"/><circle cx="455" cy="295" r="8" fill="#8B5A3A" opacity="0.5"/><circle cx="575" cy="290" r="8" fill="#8B5A3A" opacity="0.5"/><ellipse cx="512" cy="375" rx="15" ry="8" fill="#8B5A3A"/></svg>