<svg xmlns="http://www.w3.org/2000/svg" viewBox="0 0 1024 1024"><defs><radialGradient id="bg" cx="50%" cy="50%"><stop offset="0%" stop-color="#1a1810"/><stop offset="100%" stop-color="#0a0804"/></radialGradient></defs><rect width="1024" height="1024" rx="32" fill="url(#bg)"/><text x="512" y="115" text-anchor="middle" font-size="64" font-weight="bold" fill="#E8D5B7" font-family="sans-serif">70=麒麟</text><text x="512" y="170" text-anchor="middle" font-size="28" fill="#A09080" font-family="sans-serif">7彩鳞甲闪闪亮，0是祥兽圆圆满</text><ellipse cx="512" cy="680" rx="180" ry="15" fill="#0a0800" opacity="0.3"/><ellipse cx="480" cy="530" rx="70" ry="55" fill="#C89830"/><ellipse cx="480" cy="525" rx="55" ry="42" fill="#D8B048" opacity="0.5"/><ellipse cx="470" cy="540" rx="30" ry="20" fill="#E8C860" opacity="0.3"/><g fill="none" stroke="#A07820" stroke-width="1.5" opacity="0.35"><path d="M440 500 Q460 490 470 500"/><path d="M435 515 Q455 505 468 515"/><path d="M440 530 Q460 520 472 530"/></g><rect x="450" y="580" width="8" height="35" rx="3" fill="#A07820"/><rect x="470" y="580" width="8" height="35" rx="3" fill="#A07820"/><rect x="490" y="580" width="8" height="35" rx="3" fill="#A07820"/><rect x="520" y="580" width="8" height="35" rx="3" fill="#A07820"/><circle cx="430" cy="470" r="28" fill="#C89830"/><circle cx="428" cy="466" r="22" fill="#D8B048" opacity="0.4"/><path d="M430 440 L425 415" stroke="#A07820" stroke-width="4"/><g fill="#E8C048" opacity="0.5"><path d="M415 415 Q410 405 415 400 Q420 405 425 410Z"/><path d="M420 410 Q415 400 418 395"/></g><circle cx="420" cy="462" r="3.5" fill="#1a0800"/><circle cx="419" cy="460" r="1.5" fill="white" opacity="0.6"/><path d="M410 475 Q395 472 390 478" fill="none" stroke="#A07820" stroke-width="2"/><path d="M540 500 Q580 480 590 460" fill="none" stroke="#C89830" stroke-width="10" stroke-linecap="round"/></svg>