<svg xmlns="http://www.w3.org/2000/svg" viewBox="0 0 1024 1024"><defs><radialGradient id="bg" cx="50%" cy="40%"><stop offset="0%" stop-color="#1a2030"/><stop offset="100%" stop-color="#080a18"/></radialGradient></defs><rect width="1024" height="1024" rx="32" fill="url(#bg)"/><text x="512" y="115" text-anchor="middle" font-size="64" font-weight="bold" fill="#E8D5B7" font-family="sans-serif">71=机翼</text><text x="512" y="170" text-anchor="middle" font-size="28" fill="#A09080" font-family="sans-serif">7号跑道直直冲，1对大翼高高飞</text><circle cx="200" cy="300" r="25" fill="#FFEECC" opacity="0.3"/><ellipse cx="512" cy="480" rx="140" ry="25" fill="#D0D8E0"/><ellipse cx="512" cy="478" rx="130" ry="20" fill="#E0E8F0" opacity="0.5"/><ellipse cx="512" cy="460" rx="30" ry="35" fill="#B0B8C0" opacity="0.6"/><path d="M512 430 Q530 380 560 350 Q580 340 590 350 Q585 360 570 380 Q550 410 540 440" fill="#D0D8E0"/><ellipse cx="400" cy="550" rx="140" ry="20" fill="#D0D8E0"/><ellipse cx="400" cy="548" rx="125" ry="15" fill="#E0E8F0" opacity="0.4"/><ellipse cx="624" cy="550" rx="140" ry="20" fill="#D0D8E0"/><ellipse cx="624" cy="548" rx="125" ry="15" fill="#E0E8F0" opacity="0.4"/><ellipse cx="350" cy="630" rx="8" ry="25" fill="#8890A0"/><ellipse cx="450" cy="630" rx="8" ry="25" fill="#8890A0"/><g fill="white" opacity="0.12"><circle cx="250" cy="250" r="1.5"/><circle cx="750" cy="280" r="1"/><circle cx="600" cy="220" r="1.5"/><circle cx="350" cy="200" r="1"/></g></svg>