<svg xmlns="http://www.w3.org/2000/svg" viewBox="0 0 1024 1024"><defs><radialGradient id="bg" cx="50%" cy="50%"><stop offset="0%" stop-color="#1a2838"/><stop offset="100%" stop-color="#081018"/></radialGradient></defs><rect width="1024" height="1024" rx="32" fill="url(#bg)"/><text x="512" y="115" text-anchor="middle" font-size="64" font-weight="bold" fill="#E8D5B7" font-family="sans-serif">72=企鹅</text><text x="512" y="170" text-anchor="middle" font-size="28" fill="#A09080" font-family="sans-serif">7只企鹅摇摇摆，2只翅膀拍拍翘</text><ellipse cx="512" cy="680" rx="250" ry="20" fill="#1a3040" opacity="0.3"/><ellipse cx="460" cy="520" rx="50" ry="70" fill="#1a1a2e"/><ellipse cx="460" cy="510" rx="42" ry="58" fill="#2a2a3e" opacity="0.5"/><ellipse cx="460" cy="490" rx="28" ry="38" fill="#F5F0E8" opacity="0.85"/><ellipse cx="460" cy="485" rx="24" ry="30" fill="white"/><circle cx="450" cy="475" r="4" fill="#1a1a2e"/><circle cx="470" cy="475" r="4" fill="#1a1a2e"/><path d="M450 490 Q460 496 470 490" fill="none" stroke="#FF9800" stroke-width="2"/><path d="M440 520 Q410 540 405 570" fill="none" stroke="#1a1a2e" stroke-width="8" stroke-linecap="round"/><path d="M480 520 Q510 540 515 570" fill="none" stroke="#1a1a2e" stroke-width="8" stroke-linecap="round"/><rect x="440" y="580" width="10" height="20" rx="3" fill="#FF9800"/><rect x="470" y="580" width="10" height="20" rx="3" fill="#FF9800"/><ellipse cx="580" cy="540" rx="35" ry="50" fill="#1a1a2e"/><ellipse cx="580" cy="530" rx="28" ry="38" fill="white" opacity="0.8"/><circle cx="574" cy="520" r="3" fill="#1a1a2e"/><circle cx="586" cy="520" r="3" fill="#1a1a2e"/><path d="M574 530 Q580 534 586 530" fill="none" stroke="#FF9800" stroke-width="1.5"/><rect x="570" y="580" width="6" height="15" rx="2" fill="#FF9800"/><rect x="584" y="580" width="6" height="15" rx="2" fill="#FF9800"/><circle cx="480" cy="410" r="2" fill="white" opacity="0.3"/><circle cx="560" cy="430" r="1.5" fill="white" opacity="0.2"/><circle cx="600" cy="460" r="1.5" fill="white" opacity="0.2"/></svg>