<svg xmlns="http://www.w3.org/2000/svg" viewBox="0 0 1024 1024"><defs><radialGradient id="bg" cx="50%" cy="40%"><stop offset="0%" stop-color="#1a2030"/><stop offset="100%" stop-color="#080a18"/></radialGradient></defs><rect width="1024" height="1024" rx="32" fill="url(#bg)"/><text x="512" y="115" text-anchor="middle" font-size="64" font-weight="bold" fill="#E8D5B7" font-family="sans-serif">73=旗杆</text><text x="512" y="170" text-anchor="middle" font-size="28" fill="#A09080" font-family="sans-serif">7面彩旗飘飘扬，3根旗杆直直立</text><ellipse cx="512" cy="680" rx="300" ry="20" fill="#0a0a10" opacity="0.3"/><g><line x1="340" y1="350" x2="340" y2="680" stroke="#8890A0" stroke-width="10" stroke-linecap="round"/><line x1="340" y1="350" x2="340" y2="680" stroke="#A0A8B0" stroke-width="3" stroke-linecap="round"/><circle cx="340" cy="345" r="10" fill="#D0A030"/><path d="M346 370 Q420 360 450 410 Q480 460 440 500" fill="#E85D3A" opacity="0.7"/></g><g><line x1="512" y1="300" x2="512" y2="680" stroke="#8890A0" stroke-width="10" stroke-linecap="round"/><line x1="512" y1="300" x2="512" y2="680" stroke="#A0A8B0" stroke-width="3" stroke-linecap="round"/><circle cx="512" cy="295" r="10" fill="#D0A030"/><path d="M518 320 Q600 310 630 360 Q660 410 620 450" fill="#4CAF50" opacity="0.7"/></g><g><line x1="684" y1="350" x2="684" y2="680" stroke="#8890A0" stroke-width="10" stroke-linecap="round"/><line x1="684" y1="350" x2="684" y2="680" stroke="#A0A8B0" stroke-width="3" stroke-linecap="round"/><circle cx="684" cy="345" r="10" fill="#D0A030"/><path d="M690 370 Q760 360 790 410 Q820 460 780 500" fill="#4a90D0" opacity="0.7"/></g></svg>