<svg xmlns="http://www.w3.org/2000/svg" viewBox="0 0 1024 1024"><defs><radialGradient id="bg" cx="50%" cy="50%"><stop offset="0%" stop-color="#1a1810"/><stop offset="100%" stop-color="#0a0804"/></radialGradient></defs><rect width="1024" height="1024" rx="32" fill="url(#bg)"/><text x="512" y="115" text-anchor="middle" font-size="64" font-weight="bold" fill="#E8D5B7" font-family="sans-serif">74=骑士</text><text x="512" y="170" text-anchor="middle" font-size="28" fill="#A09080" font-family="sans-serif">7匹骏马踏踏奔，4方骑士威威风</text><ellipse cx="512" cy="680" rx="280" ry="20" fill="#0a0804" opacity="0.3"/><ellipse cx="450" cy="500" rx="70" ry="45" fill="#6B4030"/><ellipse cx="450" cy="495" rx="58" ry="36" fill="#8B5A3A" opacity="0.5"/><rect x="420" y="580" width="8" height="40" rx="3" fill="#4a2a10"/><rect x="440" y="580" width="8" height="40" rx="3" fill="#4a2a10"/><rect x="470" y="580" width="8" height="40" rx="3" fill="#4a2a10"/><rect x="490" y="580" width="8" height="40" rx="3" fill="#4a2a10"/><path d="M520 490 Q540 460 560 450 Q575 445 565 455 Q555 465 540 480" fill="#6B4030"/><path d="M520 480 Q535 470 540 478" fill="none" stroke="#8B5A3A" stroke-width="3"/><path d="M380 460 Q360 450 350 460 Q340 470 355 480" fill="none" stroke="#6B4030" stroke-width="5" stroke-linecap="round"/><circle cx="348" cy="462" r="5" fill="#8B5A3A"/><path d="M420 440 Q410 410 415 380" fill="none" stroke="#6B4030" stroke-width="10" stroke-linecap="round"/><circle cx="415" cy="370" r="16" fill="#F0C8A0"/><circle cx="410" cy="365" r="12" fill="#FDE0C8" opacity="0.5"/><circle cx="406" cy="362" r="2.5" fill="#1a0800"/><path d="M430 460 L460 370" stroke="#A0A8B0" stroke-width="3" stroke-linecap="round"/><path d="M458 360 L470 340" stroke="#A0A8B0" stroke-width="2.5" stroke-linecap="round"/><rect x="465" y="330" width="8" height="18" rx="2" fill="#A0A8B0"/><ellipse cx="520" cy="448" rx="25" ry="12" fill="#5a8090"/></svg>