<svg xmlns="http://www.w3.org/2000/svg" viewBox="0 0 1024 1024"><defs><radialGradient id="bg" cx="50%" cy="50%"><stop offset="0%" stop-color="#2a1a28"/><stop offset="100%" stop-color="#100a14"/></radialGradient></defs><rect width="1024" height="1024" rx="32" fill="url(#bg)"/><text x="512" y="115" text-anchor="middle" font-size="64" font-weight="bold" fill="#E8D5B7" font-family="sans-serif">75=积木</text><text x="512" y="170" text-anchor="middle" font-size="28" fill="#A09080" font-family="sans-serif">7块积木搭搭高，5层塔楼稳稳立</text><ellipse cx="512" cy="680" rx="180" ry="18" fill="#0a0808" opacity="0.4"/><rect x="430" y="540" width="164" height="20" rx="4" fill="#E85D3A"/><rect x="440" y="510" width="144" height="30" rx="4" fill="#4CAF50"/><rect x="450" y="480" width="124" height="30" rx="4" fill="#4a90D0"/><rect x="460" y="450" width="104" height="30" rx="4" fill="#FFD540"/><rect x="470" y="420" width="84" height="30" rx="4" fill="#E87080"/><rect x="480" y="390" width="64" height="30" rx="4" fill="#FF9800"/><rect x="490" y="360" width="44" height="30" rx="4" fill="#8B5AA0"/><ellipse cx="490" cy="370" rx="35" ry="6" fill="#A070C0" opacity="0.3"/><ellipse cx="480" cy="400" rx="55" ry="5" fill="#FFB040" opacity="0.25"/><ellipse cx="470" cy="460" rx="85" ry="6" fill="#FFE880" opacity="0.25"/><ellipse cx="450" cy="520" rx="115" ry="7" fill="#80D080" opacity="0.2"/><ellipse cx="440" cy="555" rx="145" ry="7" fill="#F08080" opacity="0.2"/></svg>