<svg xmlns="http://www.w3.org/2000/svg" viewBox="0 0 1024 1024"><defs><radialGradient id="bg" cx="50%" cy="50%"><stop offset="0%" stop-color="#1a1818"/><stop offset="100%" stop-color="#0a0808"/></radialGradient></defs><rect width="1024" height="1024" rx="32" fill="url(#bg)"/><text x="512" y="115" text-anchor="middle" font-size="64" font-weight="bold" fill="#E8D5B7" font-family="sans-serif">76=犀牛</text><text x="512" y="170" text-anchor="middle" font-size="28" fill="#A09080" font-family="sans-serif">7吨犀牛沉沉壮，6尺长角尖尖冲</text><ellipse cx="512" cy="700" rx="250" ry="18" fill="#0a0804" opacity="0.3"/><ellipse cx="480" cy="530" rx="90" ry="60" fill="#707870"/><ellipse cx="480" cy="525" rx="75" ry="48" fill="#808880" opacity="0.5"/><ellipse cx="460" cy="550" rx="40" ry="25" fill="#909890" opacity="0.3"/><rect x="410" y="580" width="12" height="40" rx="4" fill="#505850"/><rect x="450" y="580" width="12" height="40" rx="4" fill="#505850"/><rect x="500" y="580" width="12" height="40" rx="4" fill="#505850"/><rect x="540" y="580" width="12" height="40" rx="4" fill="#505850"/><circle cx="390" cy="470" r="30" fill="#707870"/><circle cx="388" cy="465" r="24" fill="#808880" opacity="0.4"/><circle cx="380" cy="460" r="4" fill="#1a0a00"/><path d="M365 475 Q355 470 360 485" fill="none" stroke="#505850" stroke-width="2"/><path d="M580 500 Q590 490 595 500" fill="none" stroke="#707870" stroke-width="8" stroke-linecap="round"/><path d="M360 460 Q340 440 330 430 Q320 420 310 425" fill="none" stroke="#A0A8A0" stroke-width="6" stroke-linecap="round"/><path d="M330 430 Q325 420 335 415" fill="none" stroke="#A0A8A0" stroke-width="3"/><path d="M530 480 Q560 470 580 500" fill="none" stroke="#707870" stroke-width="4"/><circle cx="580" cy="510" r="6" stroke="#707870" stroke-width="1.5" fill="none"/></svg>