<svg xmlns="http://www.w3.org/2000/svg" viewBox="0 0 1024 1024"><defs><radialGradient id="bg" cx="50%" cy="50%"><stop offset="0%" stop-color="#1a1810"/><stop offset="100%" stop-color="#0a0804"/></radialGradient></defs><rect width="1024" height="1024" rx="32" fill="url(#bg)"/><text x="512" y="115" text-anchor="middle" font-size="64" font-weight="bold" fill="#E8D5B7" font-family="sans-serif">77=象棋</text><text x="512" y="170" text-anchor="middle" font-size="28" fill="#A09080" font-family="sans-serif">7对7博弈弈，象走田马走日</text><rect x="340" y="400" width="344" height="4" fill="#8B6A4A" opacity="0.5"/><rect x="340" y="500" width="344" height="4" fill="#8B6A4A" opacity="0.5"/><line x1="420" y1="400" x2="420" y2="500" stroke="#8B6A4A" stroke-width="3" opacity="0.4"/><line x1="500" y1="400" x2="500" y2="500" stroke="#8B6A4A" stroke-width="3" opacity="0.4"/><line x1="580" y1="400" x2="580" y2="500" stroke="#8B6A4A" stroke-width="3" opacity="0.4"/><g><circle cx="380" cy="420" r="22" fill="#D0B880"/><circle cx="380" cy="418" r="16" fill="#E8D0A0" opacity="0.5"/><text x="380" y="424" text-anchor="middle" font-size="14" fill="#5a3a1a" font-weight="bold">帅</text></g><g><circle cx="540" cy="420" r="22" fill="#D0B880"/><circle cx="540" cy="418" r="16" fill="#E8D0A0" opacity="0.5"/><text x="540" y="424" text-anchor="middle" font-size="14" fill="#5a3a1a" font-weight="bold">马</text></g><circle cx="420" cy="460" r="18" fill="#C04030" opacity="0.7"/><circle cx="420" cy="458" r="12" fill="#D06050" opacity="0.4"/><circle cx="600" cy="460" r="18" fill="#C04030" opacity="0.7"/><circle cx="600" cy="458" r="12" fill="#D06050" opacity="0.4"/><circle cx="380" cy="480" r="18" fill="#C04030" opacity="0.6"/><circle cx="500" cy="440" r="15" fill="#C04030" opacity="0.5"/><path d="M380 442 L540 478" fill="none" stroke="#FFEECC" stroke-width="1" stroke-dasharray="4,4" opacity="0.3"/></svg>