<svg xmlns="http://www.w3.org/2000/svg" viewBox="0 0 1024 1024"><defs><radialGradient id="bg" cx="50%" cy="50%"><stop offset="0%" stop-color="#1a2818"/><stop offset="100%" stop-color="#0a1404"/></radialGradient></defs><rect width="1024" height="1024" rx="32" fill="url(#bg)"/><text x="512" y="115" text-anchor="middle" font-size="64" font-weight="bold" fill="#E8D5B7" font-family="sans-serif">78=青蛙</text><text x="512" y="170" text-anchor="middle" font-size="28" fill="#A09080" font-family="sans-serif">7像蛙腿弯弯蹬，8是蛙眼圆圆鼓</text><ellipse cx="512" cy="680" rx="250" ry="30" fill="#1a3a20" opacity="0.3"/><ellipse cx="512" cy="590" rx="80" ry="60" fill="#4CAF50"/><ellipse cx="512" cy="580" rx="65" ry="48" fill="#66BB6A" opacity="0.5"/><ellipse cx="512" cy="600" rx="40" ry="30" fill="#C8E6C9" opacity="0.4"/><circle cx="470" cy="530" r="18" fill="#4CAF50"/><circle cx="554" cy="530" r="18" fill="#4CAF50"/><circle cx="470" cy="530" r="12" fill="white" opacity="0.8"/><circle cx="554" cy="530" r="12" fill="white" opacity="0.8"/><circle cx="474" cy="530" r="5" fill="#1a1a08"/><circle cx="558" cy="530" r="5" fill="#1a1a08"/><path d="M470 555 Q512 570 554 555" fill="none" stroke="#388E3C" stroke-width="2.5"/><path d="M440 590 Q400 610 380 640 Q370 655 390 660" fill="none" stroke="#4CAF50" stroke-width="10" stroke-linecap="round"/><path d="M584 590 Q624 610 644 640 Q654 655 634 660" fill="none" stroke="#4CAF50" stroke-width="10" stroke-linecap="round"/><circle cx="380" cy="660" r="8" fill="#388E3C" opacity="0.5"/><circle cx="644" cy="660" r="8" fill="#388E3C" opacity="0.5"/><ellipse cx="512" cy="740" rx="80" ry="15" fill="#388E3C" opacity="0.2"/></svg>