<svg xmlns="http://www.w3.org/2000/svg" viewBox="0 0 1024 1024"><defs><radialGradient id="bg" cx="50%" cy="40%"><stop offset="0%" stop-color="#1a2030"/><stop offset="100%" stop-color="#080a18"/></radialGradient></defs><rect width="1024" height="1024" rx="32" fill="url(#bg)"/><text x="512" y="115" text-anchor="middle" font-size="64" font-weight="bold" fill="#E8D5B7" font-family="sans-serif">79=气球</text><text x="512" y="170" text-anchor="middle" font-size="28" fill="#A09080" font-family="sans-serif">7色气球圆圆满，9个飞上蓝蓝天</text><g><ellipse cx="300" cy="380" rx="45" ry="55" fill="#E85D3A" opacity="0.7"/><ellipse cx="295" cy="370" rx="30" ry="38" fill="#F08060" opacity="0.4"/><ellipse cx="285" cy="355" rx="8" ry="12" fill="white" opacity="0.15"/><path d="M300 435 L295 480" stroke="#C0A080" stroke-width="1.5"/></g><g><ellipse cx="440" cy="340" rx="45" ry="55" fill="#4a90D0" opacity="0.7"/><ellipse cx="435" cy="330" rx="30" ry="38" fill="#6ab0f0" opacity="0.4"/><ellipse cx="425" cy="315" rx="8" ry="12" fill="white" opacity="0.15"/><path d="M440 395 L435 440" stroke="#C0A080" stroke-width="1.5"/></g><g><ellipse cx="512" cy="360" rx="50" ry="60" fill="#4CAF50" opacity="0.7"/><ellipse cx="506" cy="348" rx="34" ry="42" fill="#80D080" opacity="0.4"/><ellipse cx="495" cy="332" rx="9" ry="14" fill="white" opacity="0.15"/><path d="M512 420 L508 470" stroke="#C0A080" stroke-width="1.5"/></g><g><ellipse cx="584" cy="340" rx="45" ry="55" fill="#FFD540" opacity="0.7"/><ellipse cx="579" cy="330" rx="30" ry="38" fill="#FFE880" opacity="0.4"/><ellipse cx="569" cy="315" rx="8" ry="12" fill="white" opacity="0.15"/><path d="M584 395 L579 440" stroke="#C0A080" stroke-width="1.5"/></g><g><ellipse cx="724" cy="380" rx="45" ry="55" fill="#E87080" opacity="0.7"/><ellipse cx="719" cy="370" rx="30" ry="38" fill="#F090A0" opacity="0.4"/><ellipse cx="709" cy="355" rx="8" ry="12" fill="white" opacity="0.15"/><path d="M724 435 L719 480" stroke="#C0A080" stroke-width="1.5"/></g><ellipse cx="340" cy="440" rx="200" ry="15" fill="#F0C8A0" opacity="0.15"/><g fill="white" opacity="0.1"><circle cx="250" cy="280" r="1.5"/><circle cx="650" cy="260" r="2"/><circle cx="750" cy="300" r="1.5"/></g></svg>