<svg xmlns="http://www.w3.org/2000/svg" viewBox="0 0 1024 1024"><defs><radialGradient id="bg" cx="50%" cy="40%"><stop offset="0%" stop-color="#1a2030"/><stop offset="100%" stop-color="#080a18"/></radialGradient></defs><rect width="1024" height="1024" rx="32" fill="url(#bg)"/><text x="512" y="115" text-anchor="middle" font-size="64" font-weight="bold" fill="#E8D5B7" font-family="sans-serif">80=铁塔</text><text x="512" y="170" text-anchor="middle" font-size="28" fill="#A09080" font-family="sans-serif">8面铁架层层叠，0是塔尖直直耸</text><ellipse cx="512" cy="680" rx="200" ry="15" fill="#0a0808" opacity="0.4"/><path d="M400 660 L440 580 L584 580 L624 660Z" fill="#505860"/><path d="M410 660 L444 580 L580 580 L614 660Z" fill="#606870" opacity="0.3"/><path d="M440 580 L460 500 L564 500 L584 580Z" fill="#505860"/><path d="M446 580 L464 500 L560 500 L578 580Z" fill="#606870" opacity="0.3"/><path d="M460 500 L480 400 L544 400 L564 500Z" fill="#505860"/><path d="M465 500 L484 400 L540 400 L559 500Z" fill="#606870" opacity="0.3"/><path d="M480 400 L500 300 L524 300 L544 400Z" fill="#505860"/><line x1="512" y1="300" x2="512" y2="260" stroke="#606870" stroke-width="5" stroke-linecap="round"/><circle cx="512" cy="255" r="8" fill="#D0A030" opacity="0.5"/><rect x="470" y="580" width="84" height="80" rx="2" fill="#404850" opacity="0.4"/><rect x="490" y="500" width="44" height="80" rx="2" fill="#404850" opacity="0.4"/><g stroke="#808890" stroke-width="1" opacity="0.3"><line x1="400" y1="620" x2="440" y2="620"/><line x1="400" y1="640" x2="440" y2="640"/><line x1="584" y1="620" x2="624" y2="620"/><line x1="584" y1="640" x2="624" y2="640"/><line x1="460" y1="540" x2="480" y2="540"/><line x1="544" y1="540" x2="564" y2="540"/></g></svg>