<svg xmlns="http://www.w3.org/2000/svg" viewBox="0 0 1024 1024"><defs><radialGradient id="bg" cx="50%" cy="50%"><stop offset="0%" stop-color="#1a1810"/><stop offset="100%" stop-color="#0a0804"/></radialGradient></defs><rect width="1024" height="1024" rx="32" fill="url(#bg)"/><text x="512" y="115" text-anchor="middle" font-size="64" font-weight="bold" fill="#E8D5B7" font-family="sans-serif">81=白蚁</text><text x="512" y="170" text-anchor="middle" font-size="28" fill="#A09080" font-family="sans-serif">8只白蚁排排队，1队整齐齐步走</text><ellipse cx="250" cy="580" rx="20" ry="14" fill="#E8E0D0"/><ellipse cx="278" cy="575" rx="18" ry="12" fill="#F0E8D8"/><ellipse cx="304" cy="582" rx="20" ry="14" fill="#E8E0D0"/><ellipse cx="334" cy="578" rx="18" ry="12" fill="#F0E8D8"/><ellipse cx="358" cy="572" rx="19" ry="13" fill="#E8E0D0"/><ellipse cx="388" cy="576" rx="20" ry="14" fill="#F0E8D8"/><ellipse cx="416" cy="580" rx="18" ry="12" fill="#E8E0D0"/><ellipse cx="442" cy="574" rx="19" ry="13" fill="#F0E8D8"/><g fill="#D0C8B8" opacity="0.5"><circle cx="250" cy="580" r="8"/><circle cx="278" cy="575" r="7"/><circle cx="304" cy="582" r="8"/><circle cx="334" cy="578" r="7"/><circle cx="358" cy="572" r="7.5"/><circle cx="388" cy="576" r="8"/><circle cx="416" cy="580" r="7"/><circle cx="442" cy="574" r="7.5"/></g><g stroke="#D0C8B8" stroke-width="1.5" opacity="0.5"><path d="M232 580 Q220 575 218 585"/><path d="M296 578 Q288 572 290 582"/><path d="M364 568 Q360 560 366 562"/><path d="M432 572 Q430 564 436 566"/></g><path d="M460 580 Q520 560 580 570" fill="none" stroke="#D0B880" stroke-width="2" stroke-dasharray="6,4" opacity="0.3"/><circle cx="255" cy="590" r="1.5" fill="#FFD540" opacity="0.3"/><circle cx="310" cy="585" r="1.5" fill="#FFD540" opacity="0.25"/><circle cx="370" cy="582" r="1.5" fill="#FFD540" opacity="0.3"/><circle cx="425" cy="586" r="1.5" fill="#FFD540" opacity="0.25"/></svg>