<svg xmlns="http://www.w3.org/2000/svg" viewBox="0 0 1024 1024"><defs><radialGradient id="bg" cx="50%" cy="50%"><stop offset="0%" stop-color="#1a1810"/><stop offset="100%" stop-color="#0a0804"/></radialGradient></defs><rect width="1024" height="1024" rx="32" fill="url(#bg)"/><text x="512" y="115" text-anchor="middle" font-size="64" font-weight="bold" fill="#E8D5B7" font-family="sans-serif">83=花生</text><text x="512" y="170" text-anchor="middle" font-size="28" fill="#A09080" font-family="sans-serif">8字形花生壳壳翘，3颗花生粒粒香</text><ellipse cx="512" cy="680" rx="200" ry="18" fill="#0a0804" opacity="0.3"/><path d="M420 500 Q420 440 460 420 Q500 400 512 430 Q524 400 564 420 Q604 440 604 500 Q604 560 564 580 Q524 600 512 570 Q500 600 460 580 Q420 560 420 500Z" fill="#D0C080"/><path d="M430 500 Q430 448 462 430 Q495 414 508 440 Q518 414 550 430 Q582 448 582 500 Q582 550 550 568 Q518 585 508 562 Q495 585 462 568 Q430 550 430 500Z" fill="#E8D8A0" opacity="0.5"/><ellipse cx="460" cy="475" rx="18" ry="22" fill="#C0A860" opacity="0.4"/><ellipse cx="512" cy="500" rx="25" ry="18" fill="#C0A860" opacity="0.5"/><ellipse cx="558" cy="475" rx="18" ry="22" fill="#C0A860" opacity="0.4"/><path d="M460 500 Q480 510 500 500" fill="none" stroke="#B89840" stroke-width="1.5" opacity="0.4"/><path d="M524 500 Q540 510 558 500" fill="none" stroke="#B89840" stroke-width="1.5" opacity="0.4"/></svg>