<svg xmlns="http://www.w3.org/2000/svg" viewBox="0 0 1024 1024"><defs><radialGradient id="bg" cx="50%" cy="50%"><stop offset="0%" stop-color="#1a1a28"/><stop offset="100%" stop-color="#0a0a14"/></radialGradient></defs><rect width="1024" height="1024" rx="32" fill="url(#bg)"/><text x="512" y="115" text-anchor="middle" font-size="64" font-weight="bold" fill="#E8D5B7" font-family="sans-serif">84=巴士</text><text x="512" y="170" text-anchor="middle" font-size="28" fill="#A09080" font-family="sans-serif">8个轮子滚滚跑，4排座位满满坐</text><rect x="240" y="480" width="544" height="120" rx="16" fill="#4a90D0"/><rect x="250" y="490" width="524" height="100" rx="12" fill="#5aa0e0" opacity="0.4"/><rect x="270" y="420" width="484" height="70" rx="12" fill="#4a90D0" opacity="0.85"/><rect x="280" y="428" width="120" height="55" rx="8" fill="#80C0F0" opacity="0.3"/><rect x="420" y="428" width="120" height="55" rx="8" fill="#80C0F0" opacity="0.3"/><rect x="560" y="428" width="120" height="55" rx="8" fill="#80C0F0" opacity="0.3"/><rect x="690" y="428" width="50" height="55" rx="8" fill="#80C0F0" opacity="0.3"/><circle cx="340" cy="610" r="28" fill="#2a2a3a"/><circle cx="340" cy="610" r="16" fill="#3a3a4a"/><circle cx="684" cy="610" r="28" fill="#2a2a3a"/><circle cx="684" cy="610" r="16" fill="#3a3a4a"/><circle cx="430" cy="510" r="6" fill="#FFD540" opacity="0.4"/><circle cx="594" cy="510" r="6" fill="#E85D3A" opacity="0.4"/><rect x="480" y="380" width="64" height="15" rx="4" fill="#4a90D0"/></svg>