<svg xmlns="http://www.w3.org/2000/svg" viewBox="0 0 1024 1024"><defs><radialGradient id="bg" cx="50%" cy="50%"><stop offset="0%" stop-color="#1a1810"/><stop offset="100%" stop-color="#0a0804"/></radialGradient></defs><rect width="1024" height="1024" rx="32" fill="url(#bg)"/><text x="512" y="115" text-anchor="middle" font-size="64" font-weight="bold" fill="#E8D5B7" font-family="sans-serif">85=宝物</text><text x="512" y="170" text-anchor="middle" font-size="28" fill="#A09080" font-family="sans-serif">8件珍品闪闪光，5箱宝物满满藏</text><path d="M340 600 L300 550 L340 500 L400 550Z" fill="#D0A830" opacity="0.6"/><path d="M350 595 L315 550 L350 510 L400 550Z" fill="#E8C048" opacity="0.3"/><path d="M512 580 Q480 520 512 480 Q544 520 512 580Z" fill="#E85D3A" opacity="0.5"/><path d="M512 570 Q490 525 512 490 Q534 525 512 570Z" fill="#F08060" opacity="0.25"/><path d="M624 600 L580 550 L624 500 L684 550Z" fill="#4a90D0" opacity="0.6"/><path d="M634 595 L595 550 L634 510 L674 550Z" fill="#6ab0f0" opacity="0.3"/><path d="M380 580 Q380 540 420 530 Q460 520 460 560 Q460 600 420 610 Q380 620 380 580Z" fill="#4CAF50" opacity="0.5"/><path d="M395 580 Q395 548 422 540 Q449 532 449 562 Q449 592 422 600 Q395 608 395 580Z" fill="#80D080" opacity="0.3"/><path d="M640 580 Q640 545 670 538 Q700 531 700 565 Q700 599 670 606 Q640 613 640 580Z" fill="#8B5AA0" opacity="0.5"/><rect x="420" y="600" width="184" height="40" rx="6" fill="#8B6040"/><rect x="430" y="605" width="164" height="30" rx="4" fill="#A07050" opacity="0.5"/><circle cx="480" cy="620" r="8" fill="#FFD540" opacity="0.7"/><circle cx="512" cy="620" r="8" fill="#E85D3A" opacity="0.6"/><circle cx="544" cy="620" r="8" fill="#FFD540" opacity="0.7"/></svg>