<svg xmlns="http://www.w3.org/2000/svg" viewBox="0 0 1024 1024"><defs><radialGradient id="bg" cx="50%" cy="40%"><stop offset="0%" stop-color="#1a2028"/><stop offset="100%" stop-color="#0a0a14"/></radialGradient></defs><rect width="1024" height="1024" rx="32" fill="url(#bg)"/><text x="512" y="115" text-anchor="middle" font-size="64" font-weight="bold" fill="#E8D5B7" font-family="sans-serif">87=白旗</text><text x="512" y="170" text-anchor="middle" font-size="28" fill="#A09080" font-family="sans-serif">8面白旗飘飘，7丈高杆立立</text><line x1="512" y1="350" x2="512" y2="680" stroke="#8890A0" stroke-width="10" stroke-linecap="round"/><line x1="512" y1="350" x2="512" y2="680" stroke="#A0A8B0" stroke-width="3" stroke-linecap="round"/><circle cx="512" cy="345" r="10" fill="#D0A030"/><path d="M518 370 Q580 360 600 410 Q620 460 580 480 Q550 490 530 470" fill="white" opacity="0.6"/><path d="M518 370 Q580 365 596 410 Q612 450 580 470 Q558 480 538 465" fill="none" stroke="#E0E0E0" stroke-width="1"/><path d="M518 490 Q560 480 580 520 Q600 560 560 580 Q540 585 524 575" fill="white" opacity="0.5"/><path d="M518 370 Q570 380 590 430" fill="none" stroke="white" stroke-width="1.5" opacity="0.3"/><path d="M518 420 Q555 440 570 480" fill="none" stroke="white" stroke-width="1.5" opacity="0.3"/></svg>