<svg xmlns="http://www.w3.org/2000/svg" viewBox="0 0 1024 1024"><defs><radialGradient id="bg" cx="50%" cy="50%"><stop offset="0%" stop-color="#1a1820"/><stop offset="100%" stop-color="#0a0810"/></radialGradient></defs><rect width="1024" height="1024" rx="32" fill="url(#bg)"/><text x="512" y="115" text-anchor="middle" font-size="64" font-weight="bold" fill="#E8D5B7" font-family="sans-serif">88=爸爸</text><text x="512" y="170" text-anchor="middle" font-size="28" fill="#A09080" font-family="sans-serif">88谐音爸，父爱如山</text><circle cx="450" cy="330" r="30" fill="#F0C8A0"/><circle cx="450" cy="326" r="24" fill="#FDE0C8" opacity="0.5"/><circle cx="440" cy="322" r="3" fill="#2a1010"/><circle cx="458" cy="322" r="3" fill="#2a1010"/><path d="M440 340 Q450 346 460 340" fill="none" stroke="#D08080" stroke-width="1.5"/><path d="M450 310 Q448 295 450 285" fill="none" stroke="#2a1010" stroke-width="3"/><rect x="420" y="360" width="60" height="70" rx="12" fill="#4a6080"/><circle cx="574" cy="360" r="24" fill="#F0C8A0"/><circle cx="574" cy="356" r="18" fill="#FDE0C8" opacity="0.5"/><circle cx="566" cy="354" r="2.5" fill="#2a1010"/><circle cx="580" cy="354" r="2.5" fill="#2a1010"/><path d="M570 370 Q574 374 578 370" fill="none" stroke="#D08080" stroke-width="1.5"/><path d="M574 345 L574 335" stroke="#2a1010" stroke-width="3"/><rect x="556" y="385" width="36" height="50" rx="8" fill="#E87080" opacity="0.6"/><ellipse cx="512" cy="550" rx="100" ry="15" fill="#0a0808" opacity="0.3"/><path d="M440 430 Q420 480 440 530 Q460 570 512 580 Q564 570 584 530 Q604 480 584 430" fill="none" stroke="#4a6080" stroke-width="6" opacity="0.4"/><text x="512" y="640" text-anchor="middle" font-size="18" fill="#E87080" opacity="0.3">♥ 爸爸辛苦了 ♥</text></svg>