<svg xmlns="http://www.w3.org/2000/svg" viewBox="0 0 1024 1024">
  <defs>
    <radialGradient id="bg" cx="50%" cy="30%"><stop offset="0%" stop-color="#1a3018"/><stop offset="100%" stop-color="#061004"/></radialGradient>
    <linearGradient id="trunk" x1="0" y1="0" x2="1" y2="0"><stop offset="0%" stop-color="#4a6a20"/><stop offset="50%" stop-color="#6a8a30"/><stop offset="100%" stop-color="#4a6a20"/></linearGradient>
    <linearGradient id="leaf1" x1="0" y1="0" x2="1" y2="0"><stop offset="0%" stop-color="#2E7D32"/><stop offset="100%" stop-color="#66BB6A"/></linearGradient>
    <linearGradient id="leaf2" x1="1" y1="0" x2="0" y2="0"><stop offset="0%" stop-color="#388E3C"/><stop offset="100%" stop-color="#81C784"/></linearGradient>
    <radialGradient id="moon" cx="50%" cy="50%"><stop offset="0%" stop-color="#FFE8C0" stop-opacity="0.15"/><stop offset="100%" stop-color="#FFD540" stop-opacity="0"/></radialGradient>
  </defs>

  <rect width="1024" height="1024" rx="32" fill="url(#bg)"/>

  <!-- 月光 -->
  <circle cx="780" cy="260" r="35" fill="#FFEECC" opacity="0.5"/>
  <circle cx="788" cy="254" r="28" fill="#1a3018"/>
  <circle cx="780" cy="260" r="180" fill="url(#moon)"/>

  <!-- 地面 -->
  <ellipse cx="512" cy="730" rx="380" ry="30" fill="#0a1a04" opacity="0.5"/>

  <!-- 🌿 蕉树1 主树 -->
  <!-- 树干 -->
  <rect x="470" y="350" width="44" height="370" rx="10" fill="url(#trunk)"/>
  <!-- 叶鞘层叠纹理 -->
  <g fill="none" stroke="#3a5a10" stroke-width="1.5" opacity="0.4">
    <path d="M470 400 Q492 395 514 400"/>
    <path d="M470 440 Q492 435 514 440"/>
    <path d="M470 480 Q492 475 514 480"/>
    <path d="M470 520 Q492 515 514 520"/>
    <path d="M470 560 Q492 555 514 560"/>
    <path d="M470 600 Q492 595 514 600"/>
    <path d="M470 640 Q492 635 514 640"/>
    <path d="M470 680 Q492 675 514 680"/>
  </g>
  <!-- 树干高光 -->
  <rect x="484" y="350" width="10" height="370" fill="#8aB860" opacity="0.15"/>

  <!-- 大叶片1 左上 9形长展 -->
  <path d="M490 380 Q380 300 300 240 Q250 220 230 250 Q210 280 250 310 Q300 350 380 390Z" fill="url(#leaf1)" opacity="0.8"/>
  <path d="M490 380 Q380 300 300 240" fill="none" stroke="#43A047" stroke-width="2" opacity="0.5"/>
  <path d="M450 360 Q350 300 270 260" fill="none" stroke="#81C784" stroke-width="1.5" opacity="0.3"/>

  <!-- 大叶片2 右上 9形长展 -->
  <path d="M510 370 Q600 280 700 230 Q760 210 780 240 Q800 280 760 310 Q700 360 610 390Z" fill="url(#leaf2)" opacity="0.8"/>
  <path d="M510 370 Q600 280 700 230" fill="none" stroke="#43A047" stroke-width="2" opacity="0.5"/>
  <path d="M560 350 Q650 280 720 240" fill="none" stroke="#A5D6A7" stroke-width="1.5" opacity="0.3"/>

  <!-- 叶片3 左下垂 -->
  <path d="M490 400 Q420 450 340 540 Q310 580 330 600 Q360 620 380 580 Q420 520 500 420Z" fill="#388E3C" opacity="0.7"/>
  <path d="M490 400 Q420 450 340 540" fill="none" stroke="#2E7D32" stroke-width="1.5" opacity="0.4"/>

  <!-- 叶片4 右下垂 -->
  <path d="M510 400 Q580 460 660 550 Q690 590 680 610 Q650 630 620 590 Q570 510 510 420Z" fill="#4CAF50" opacity="0.65"/>
  <path d="M510 400 Q580 460 660 550" fill="none" stroke="#388E3C" stroke-width="1.5" opacity="0.4"/>

  <!-- 叶片5 中左展 -->
  <path d="M485 350 Q360 270 280 310 Q240 330 250 355 Q270 370 320 360 Q390 340 470 360Z" fill="#81C784" opacity="0.5"/>
  <!-- 叶片6 中右展 -->
  <path d="M515 350 Q640 260 720 300 Q760 320 750 345 Q730 360 680 350 Q610 330 530 360Z" fill="#A5D6A7" opacity="0.45"/>

  <!-- 🌿 蕉树2 小树 右侧 -->
  <rect x="680" y="480" width="28" height="240" rx="8" fill="#5a7a28"/>
  <rect x="690" y="480" width="6" height="240" fill="#8aB860" opacity="0.15"/>
  <g fill="none" stroke="#3a5a10" stroke-width="1" opacity="0.3">
    <path d="M680 510 Q694 508 708 510"/><path d="M680 550 Q694 548 708 550"/>
    <path d="M680 590 Q694 588 708 590"/><path d="M680 630 Q694 628 708 630"/>
  </g>
  <path d="M694 500 Q760 440 820 420 Q840 415 835 435 Q825 450 790 460 Q740 475 700 510Z" fill="#4CAF50" opacity="0.55"/>
  <path d="M694 510 Q750 480 800 490 Q820 495 810 510 Q790 520 750 515 Q720 510 700 520Z" fill="#66BB6A" opacity="0.4"/>

  <!-- 🌿 蕉树3 小树 左侧 -->
  <rect x="330" y="520" width="24" height="200" rx="7" fill="#4a6a20"/>
  <path d="M342 540 Q290 490 250 480 Q230 475 225 490 Q230 505 260 500 Q300 495 340 550Z" fill="#388E3C" opacity="0.5"/>
  <path d="M342 550 Q300 510 270 515 Q250 518 255 530 Q275 535 310 525 Q335 518 348 558Z" fill="#66BB6A" opacity="0.35"/>

  <!-- 🍌 芭蕉串 8形弯挂 -->
  <!-- 串1 -->
  <path d="M490 420 Q510 440 505 465 Q500 490 495 500" fill="none" stroke="#5a8a20" stroke-width="4" stroke-linecap="round"/>
  <g fill="#FFC107" opacity="0.85">
    <path d="M485 460 Q470 480 478 500 Q490 515 498 505 Q505 490 495 470"/>
    <path d="M492 468 Q480 488 486 505 Q496 518 503 508 Q508 495 498 478"/>
    <path d="M498 472 Q488 492 493 508 Q501 518 507 508 Q511 495 502 480"/>
    <path d="M503 475 Q496 495 500 510 Q506 518 510 508 Q513 496 505 483"/>
  </g>
  <g fill="#FFD54F" opacity="0.7">
    <path d="M487 462 Q474 482 480 500 Q488 510 494 504 Q498 492 492 474"/>
    <path d="M500 474 Q494 492 498 506 Q504 512 508 506 Q510 496 503 483"/>
  </g>

  <!-- 串2 -->
  <path d="M510 415 Q525 435 518 460 Q512 485 508 495" fill="none" stroke="#5a8a20" stroke-width="4" stroke-linecap="round"/>
  <g fill="#FFB300" opacity="0.8">
    <path d="M505 460 Q495 480 502 498 Q510 510 516 500 Q522 485 513 470"/>
    <path d="M512 465 Q502 485 508 502 Q515 514 520 504 Q525 490 516 475"/>
    <path d="M518 468 Q510 488 515 503 Q521 512 526 503 Q530 490 522 477"/>
  </g>
  <g fill="#FFD54F" opacity="0.6">
    <path d="M507 464 Q500 482 506 496 Q512 506 516 498 Q520 486 514 472"/>
  </g>

  <!-- 串3 小串 -->
  <path d="M500 425 Q480 450 475 470" fill="none" stroke="#4a7a18" stroke-width="3" stroke-linecap="round"/>
  <g fill="#FFCA28" opacity="0.75">
    <path d="M472 458 Q465 472 470 484 Q477 492 482 486 Q486 476 478 464"/>
    <path d="M478 460 Q470 475 475 486 Q480 494 484 488 Q488 478 481 467"/>
  </g>

  <!-- 萤火虫 -->
  <g fill="#FFE8A0" opacity="0.5">
    <circle cx="300" cy="400" r="2.5"/>
    <circle cx="280" cy="380" r="1.8"/>
    <circle cx="750" cy="380" r="2"/>
    <circle cx="730" cy="360" r="1.5"/>
    <circle cx="400" cy="280" r="2"/>
    <circle cx="650" cy="300" r="1.8"/>
  </g>
</svg>