<svg xmlns="http://www.w3.org/2000/svg" viewBox="0 0 1024 1024"><defs><radialGradient id="bg" cx="50%" cy="50%"><stop offset="0%" stop-color="#1a1618"/><stop offset="100%" stop-color="#0a0608"/></radialGradient></defs><rect width="1024" height="1024" rx="32" fill="url(#bg)"/><text x="512" y="115" text-anchor="middle" font-size="64" font-weight="bold" fill="#E8D5B7" font-family="sans-serif">90=酒瓶</text><text x="512" y="170" text-anchor="middle" font-size="28" fill="#A09080" font-family="sans-serif">9壶老酒倒倒满，0是瓶口圆圆</text><ellipse cx="512" cy="680" rx="120" ry="15" fill="#0a0604" opacity="0.4"/><path d="M460 500 L460 640 Q460 680 512 680 Q564 680 564 640 L564 500Z" fill="#3a6020"/><path d="M468 505 L468 640 Q468 672 512 672 Q556 672 556 640 L556 505Z" fill="#4a8028" opacity="0.5"/><rect x="480" y="440" width="64" height="60" rx="4" fill="#4a8028"/><rect x="475" y="430" width="74" height="15" rx="4" fill="#3a6020"/><ellipse cx="512" cy="430" rx="25" ry="8" fill="#2a4010"/><path d="M512 430 Q540 430 545 450" fill="none" stroke="#C89860" stroke-width="3"/><rect x="490" y="570" width="44" height="50" rx="6" fill="#F5F0E8" opacity="0.2"/><text x="512" y="600" text-anchor="middle" font-size="16" fill="#FFD540" opacity="0.4">酒</text><ellipse cx="400" cy="620" rx="18" ry="30" fill="#E8E0D0" opacity="0.3"/><ellipse cx="400" cy="618" rx="14" ry="24" fill="#D0B880" opacity="0.25"/><ellipse cx="400" cy="608" rx="8" ry="4" fill="#E8E0D0" opacity="0.25"/></svg>