<svg xmlns="http://www.w3.org/2000/svg" viewBox="0 0 1024 1024"><defs><radialGradient id="bg" cx="50%" cy="50%"><stop offset="0%" stop-color="#1a1a28"/><stop offset="100%" stop-color="#0a0a14"/></radialGradient></defs><rect width="1024" height="1024" rx="32" fill="url(#bg)"/><text x="512" y="115" text-anchor="middle" font-size="64" font-weight="bold" fill="#E8D5B7" font-family="sans-serif">91=球衣</text><text x="512" y="170" text-anchor="middle" font-size="28" fill="#A09080" font-family="sans-serif">9号球衣独独穿，1人球场风风光</text><path d="M440 340 L420 400 Q440 420 460 430 L480 600 L544 600 L564 430 Q584 420 604 400 L584 340Z" fill="#E85D3A" opacity="0.7"/><path d="M448 350 L432 400 Q450 418 466 426 L482 590 L542 590 L558 426 Q574 418 592 400 L576 350Z" fill="#F08060" opacity="0.3"/><rect x="460" y="420" width="104" height="8" rx="3" fill="white" opacity="0.3"/><text x="512" y="510" text-anchor="middle" font-size="72" font-weight="bold" fill="white" opacity="0.7">91</text><rect x="440" y="340" width="144" height="15" rx="5" fill="#C04030"/><path d="M460 340 Q380 330 360 380" fill="none" stroke="#E85D3A" stroke-width="12" stroke-linecap="round" opacity="0.6"/><path d="M564 340 Q644 330 664 380" fill="none" stroke="#E85D3A" stroke-width="12" stroke-linecap="round" opacity="0.6"/></svg>