<svg xmlns="http://www.w3.org/2000/svg" viewBox="0 0 1024 1024"><defs><radialGradient id="bg" cx="50%" cy="50%"><stop offset="0%" stop-color="#1a2018"/><stop offset="100%" stop-color="#0a1004"/></radialGradient></defs><rect width="1024" height="1024" rx="32" fill="url(#bg)"/><text x="512" y="115" text-anchor="middle" font-size="64" font-weight="bold" fill="#E8D5B7" font-family="sans-serif">92=球儿</text><text x="512" y="170" text-anchor="middle" font-size="28" fill="#A09080" font-family="sans-serif">9个皮球滚滚动，2儿争抢乐开花</text><ellipse cx="512" cy="680" rx="250" ry="20" fill="#0a0800" opacity="0.3"/><circle cx="380" cy="550" r="44" fill="#E85D3A" opacity="0.7"/><circle cx="380" cy="548" r="34" fill="#F08060" opacity="0.4"/><ellipse cx="370" cy="535" rx="8" ry="14" fill="white" opacity="0.15"/><circle cx="500" cy="560" r="40" fill="#4a90D0" opacity="0.7"/><circle cx="500" cy="558" r="30" fill="#6ab0f0" opacity="0.4"/><ellipse cx="492" cy="546" rx="7" ry="12" fill="white" opacity="0.15"/><circle cx="620" cy="545" r="38" fill="#4CAF50" opacity="0.7"/><circle cx="620" cy="543" r="28" fill="#80D080" opacity="0.4"/><ellipse cx="612" cy="532" rx="6" ry="11" fill="white" opacity="0.15"/><circle cx="440" cy="620" r="36" fill="#FFD540" opacity="0.6"/><circle cx="440" cy="618" r="26" fill="#FFE880" opacity="0.35"/><circle cx="580" cy="625" r="34" fill="#8B5AA0" opacity="0.6"/><circle cx="580" cy="623" r="24" fill="#A070C0" opacity="0.35"/><circle cx="310" cy="480" r="16" fill="#F0C8A0"/><circle cx="308" cy="476" r="10" fill="#FDE0C8" opacity="0.4"/><circle cx="710" cy="490" r="16" fill="#F0C8A0"/><circle cx="708" cy="486" r="10" fill="#FDE0C8" opacity="0.4"/></svg>