<svg xmlns="http://www.w3.org/2000/svg" viewBox="0 0 1024 1024"><defs><radialGradient id="bg" cx="50%" cy="50%"><stop offset="0%" stop-color="#1a1a22"/><stop offset="100%" stop-color="#0a0a12"/></radialGradient></defs><rect width="1024" height="1024" rx="32" fill="url(#bg)"/><text x="512" y="115" text-anchor="middle" font-size="64" font-weight="bold" fill="#E8D5B7" font-family="sans-serif">93=旧伞</text><text x="512" y="170" text-anchor="middle" font-size="28" fill="#A09080" font-family="sans-serif">9把旧伞遮遮雨，3折收起静静放</text><path d="M310 500 Q512 300 714 500 Q614 530 512 555 Q410 530 310 500Z" fill="#5a5080" opacity="0.4"/><path d="M330 500 Q512 315 694 500 Q604 525 512 546 Q420 525 330 500Z" fill="#6a6090" opacity="0.25"/><path d="M400 490 Q512 370 624 490" fill="none" stroke="#7a70a0" stroke-width="1.5" opacity="0.3"/><line x1="512" y1="546" x2="512" y2="660" stroke="#6B4A30" stroke-width="7" stroke-linecap="round"/><line x1="512" y1="546" x2="512" y2="660" stroke="#8B6A4A" stroke-width="2.5" stroke-linecap="round"/><circle cx="512" cy="380" r="5" fill="#6B4A30"/><path d="M512 546 Q510 520 515 500" fill="none" stroke="#5a5080" stroke-width="1.5" opacity="0.4"/><circle cx="515" cy="490" r="2.5" fill="#5a5080" opacity="0.35"/><g stroke="#5a5080" stroke-width="0.8" opacity="0.2"><line x1="450" y1="510" x2="470" y2="520"/><line x1="520" y1="515" x2="540" y2="525"/><line x1="560" y1="508" x2="580" y2="518"/></g></svg>