<svg xmlns="http://www.w3.org/2000/svg" viewBox="0 0 1024 1024"><defs><radialGradient id="bg" cx="50%" cy="50%"><stop offset="0%" stop-color="#1a1820"/><stop offset="100%" stop-color="#0a0810"/></radialGradient></defs><rect width="1024" height="1024" rx="32" fill="url(#bg)"/><text x="512" y="115" text-anchor="middle" font-size="64" font-weight="bold" fill="#E8D5B7" font-family="sans-serif">94=教师</text><text x="512" y="170" text-anchor="middle" font-size="28" fill="#A09080" font-family="sans-serif">9月开学书声朗，4方教师辛勤耕</text><rect x="300" y="500" width="424" height="20" rx="4" fill="#6a5a3a" opacity="0.5"/><rect x="350" y="380" width="324" height="120" rx="16" fill="#4a6080"/><circle cx="512" cy="340" r="28" fill="#F0C8A0"/><circle cx="512" cy="336" r="22" fill="#FDE0C8" opacity="0.5"/><circle cx="502" cy="332" r="3" fill="#2a1010"/><circle cx="522" cy="332" r="3" fill="#2a1010"/><path d="M506 348 Q512 354 518 348" fill="none" stroke="#D08080" stroke-width="1.5"/><path d="M512 320 Q510 308 512 300" fill="none" stroke="#3a2010" stroke-width="2.5"/><rect x="496" y="360" width="32" height="15" rx="3" fill="white" opacity="0.6"/><rect x="590" y="340" width="8" height="80" rx="3" fill="#A07040"/><rect x="605" y="330" width="50" height="15" rx="3" fill="#C89830"/><rect x="380" y="420" width="264" height="15" rx="5" fill="white" opacity="0.1"/><g stroke="white" stroke-width="1.5" opacity="0.2"><line x1="420" y1="445" x2="480" y2="445"/><line x1="530" y1="445" x2="590" y2="445"/><line x1="440" y1="465" x2="560" y2="465"/></g><text x="720" y="450" font-size="14" fill="#FFD540" opacity="0.2">✦</text></svg>