<svg xmlns="http://www.w3.org/2000/svg" viewBox="0 0 1024 1024"><defs><radialGradient id="bg" cx="50%" cy="50%"><stop offset="0%" stop-color="#1a1618"/><stop offset="100%" stop-color="#0a0608"/></radialGradient></defs><rect width="1024" height="1024" rx="32" fill="url(#bg)"/><text x="512" y="115" text-anchor="middle" font-size="64" font-weight="bold" fill="#E8D5B7" font-family="sans-serif">95=酒壶</text><text x="512" y="170" text-anchor="middle" font-size="28" fill="#A09080" font-family="sans-serif">9壶老酒温温热，5个酒壶齐齐摆</text><ellipse cx="512" cy="680" rx="180" ry="15" fill="#0a0600" opacity="0.4"/><ellipse cx="450" cy="560" rx="45" ry="55" fill="#8B6040"/><ellipse cx="450" cy="555" rx="35" ry="45" fill="#A07050" opacity="0.5"/><ellipse cx="450" cy="520" rx="20" ry="8" fill="#5a3a20"/><rect x="440" y="505" width="20" height="10" rx="3" fill="#6B4030"/><path d="M460 540 Q480 530 490 550" fill="none" stroke="#8B6040" stroke-width="8" stroke-linecap="round"/><ellipse cx="574" cy="560" rx="40" ry="50" fill="#C89830"/><ellipse cx="574" cy="555" rx="30" ry="40" fill="#D8B048" opacity="0.5"/><ellipse cx="574" cy="525" rx="18" ry="7" fill="#A07820"/><rect x="565" y="510" width="18" height="8" rx="3" fill="#A07820"/><path d="M582 540 Q600 530 606 548" fill="none" stroke="#C89830" stroke-width="7" stroke-linecap="round"/><ellipse cx="512" cy="600" rx="20" ry="8" fill="#505040" opacity="0.4"/></svg>