<svg xmlns="http://www.w3.org/2000/svg" viewBox="0 0 1024 1024"><defs><radialGradient id="bg" cx="50%" cy="50%"><stop offset="0%" stop-color="#1a1610"/><stop offset="100%" stop-color="#0a0604"/></radialGradient></defs><rect width="1024" height="1024" rx="32" fill="url(#bg)"/><text x="512" y="115" text-anchor="middle" font-size="64" font-weight="bold" fill="#E8D5B7" font-family="sans-serif">96=酒炉</text><text x="512" y="170" text-anchor="middle" font-size="28" fill="#A09080" font-family="sans-serif">9个酒炉火火烧，6锅温酒香香飘</text><ellipse cx="512" cy="640" rx="120" ry="12" fill="#0a0600" opacity="0.4"/><ellipse cx="512" cy="580" rx="60" ry="35" fill="#5a3a2a"/><ellipse cx="512" cy="575" rx="50" ry="28" fill="#6a4a3a" opacity="0.5"/><ellipse cx="512" cy="560" rx="30" ry="10" fill="#2a1a0a"/><path d="M480 580 Q470 540 490 500 Q510 470 512 460" fill="none" stroke="#D0B880" stroke-width="8" stroke-linecap="round"/><circle cx="512" cy="450" r="12" fill="#D0B880" opacity="0.5"/><path d="M500 480 Q490 460 500 440" fill="none" stroke="#E85D3A" stroke-width="4" stroke-linecap="round" opacity="0.4"/><path d="M515 485 Q520 465 518 445" fill="none" stroke="#FF9800" stroke-width="3" stroke-linecap="round" opacity="0.35"/><path d="M528 480 Q535 462 530 442" fill="none" stroke="#E85D3A" stroke-width="3.5" stroke-linecap="round" opacity="0.35"/><ellipse cx="380" cy="580" rx="40" ry="25" fill="#D0B880" opacity="0.4"/><ellipse cx="380" cy="575" rx="32" ry="18" fill="#E8D0A0" opacity="0.25"/><ellipse cx="644" cy="580" rx="40" ry="25" fill="#D0B880" opacity="0.4"/><path d="M540 570 Q600 540 624 570" fill="none" stroke="#FFD540" stroke-width="2" opacity="0.2"/></svg>