<svg xmlns="http://www.w3.org/2000/svg" viewBox="0 0 1024 1024"><defs><radialGradient id="bg" cx="50%" cy="50%"><stop offset="0%" stop-color="#1a1618"/><stop offset="100%" stop-color="#0a0608"/></radialGradient></defs><rect width="1024" height="1024" rx="32" fill="url(#bg)"/><text x="512" y="115" text-anchor="middle" font-size="64" font-weight="bold" fill="#E8D5B7" font-family="sans-serif">97=酒器</text><text x="512" y="170" text-anchor="middle" font-size="28" fill="#A09080" font-family="sans-serif">9件酒器精精致，7套装成齐齐摆</text><ellipse cx="512" cy="660" rx="200" ry="15" fill="#0a0600" opacity="0.4"/><path d="M380 500 L370 620 Q368 650 400 655 L500 660 L600 655 Q634 650 632 620 L622 500Z" fill="#D0B880" opacity="0.5"/><path d="M390 505 L380 618 Q378 642 402 646 L500 650 L598 646 Q622 642 620 618 L610 505Z" fill="#E8D0A0" opacity="0.3"/><ellipse cx="500" cy="505" rx="110" ry="12" fill="#C89860"/><ellipse cx="500" cy="505" rx="95" ry="8" fill="#2a1a08" opacity="0.4"/><rect x="370" y="560" width="60" height="30" rx="4" fill="#B08040" opacity="0.4"/><rect x="460" y="570" width="80" height="25" rx="4" fill="#C89860" opacity="0.35"/><rect x="565" y="555" width="50" height="35" rx="4" fill="#B08040" opacity="0.4"/><circle cx="400" cy="545" r="4" fill="#FFD540" opacity="0.3"/><circle cx="500" cy="555" r="4" fill="#FFD540" opacity="0.3"/><circle cx="590" cy="540" r="4" fill="#FFD540" opacity="0.3"/></svg>