<svg xmlns="http://www.w3.org/2000/svg" viewBox="0 0 1024 1024"><defs><radialGradient id="bg" cx="50%" cy="50%"><stop offset="0%" stop-color="#1a1618"/><stop offset="100%" stop-color="#0a0608"/></radialGradient></defs><rect width="1024" height="1024" rx="32" fill="url(#bg)"/><text x="512" y="115" text-anchor="middle" font-size="64" font-weight="bold" fill="#E8D5B7" font-family="sans-serif">98=酒杯</text><text x="512" y="170" text-anchor="middle" font-size="28" fill="#A09080" font-family="sans-serif">9瓶喝完剩剩半，8个酒杯齐齐干</text><ellipse cx="512" cy="680" rx="200" ry="15" fill="#0a0600" opacity="0.4"/><path d="M460 500 L470 640 Q472 660 512 660 Q552 660 554 640 L564 500Z" fill="#E0D8D0" opacity="0.3"/><path d="M468 505 L476 638 Q478 652 512 652 Q546 652 548 638 L556 505Z" fill="#F5F0E8" opacity="0.2"/><ellipse cx="512" cy="500" rx="48" ry="10" fill="#E0D8D0" opacity="0.4"/><ellipse cx="512" cy="500" rx="38" ry="7" fill="#F5F0E8" opacity="0.3"/><ellipse cx="512" cy="520" rx="40" ry="15" fill="#D0B880" opacity="0.25"/><path d="M512 500 L512 520" stroke="#C0A860" stroke-width="1" opacity="0.4"/><ellipse cx="380" cy="580" rx="25" ry="35" fill="#E0D8D0" opacity="0.25"/><ellipse cx="380" cy="578" rx="20" ry="28" fill="#D0B880" opacity="0.2"/><ellipse cx="644" cy="580" rx="25" ry="35" fill="#E0D8D0" opacity="0.25"/><ellipse cx="644" cy="578" rx="20" ry="28" fill="#D0B880" opacity="0.2"/><text x="512" y="570" text-anchor="middle" font-size="20" fill="#FFD540" opacity="0.15">干杯</text></svg>