<svg xmlns="http://www.w3.org/2000/svg" viewBox="0 0 1024 1024"><defs><radialGradient id="bg" cx="50%" cy="50%"><stop offset="0%" stop-color="#1a1820"/><stop offset="100%" stop-color="#0a0810"/></radialGradient></defs><rect width="1024" height="1024" rx="32" fill="url(#bg)"/><text x="512" y="115" text-anchor="middle" font-size="64" font-weight="bold" fill="#E8D5B7" font-family="sans-serif">99=舅舅</text><text x="512" y="170" text-anchor="middle" font-size="28" fill="#A09080" font-family="sans-serif">99谐音舅舅亲，娘亲舅大情最深</text><ellipse cx="512" cy="680" rx="150" ry="15" fill="#0a0808" opacity="0.3"/><circle cx="512" cy="340" r="32" fill="#F0C8A0"/><circle cx="512" cy="335" r="26" fill="#FDE0C8" opacity="0.5"/><circle cx="500" cy="330" r="3.5" fill="#2a1010"/><circle cx="524" cy="330" r="3.5" fill="#2a1010"/><path d="M506 350 Q512 356 518 350" fill="none" stroke="#D08080" stroke-width="2"/><path d="M512 318 Q510 305 512 295" fill="none" stroke="#3a2010" stroke-width="8"/><rect x="482" y="370" width="60" height="60" rx="12" fill="#4a6070"/><rect x="476" y="370" width="12" height="30" rx="4" fill="#3a5060"/><rect x="536" y="370" width="12" height="30" rx="4" fill="#3a5060"/><rect x="440" y="430" width="144" height="80" rx="16" fill="#5a7080"/><rect x="585" y="420" width="30" height="20" rx="4" fill="#D0A830" opacity="0.5"/><path d="M600 440 L620 480" fill="none" stroke="#D0A830" stroke-width="3" opacity="0.4"/><circle cx="622" cy="488" r="5" fill="#D0A830" opacity="0.4"/><text x="512" y="550" text-anchor="middle" font-size="22" fill="#FFD540" opacity="0.2">♥ 娘亲舅大 ♥</text></svg>