<svg xmlns="http://www.w3.org/2000/svg" viewBox="0 0 1024 1024">
  <defs><radialGradient id="bg" cx="50%" cy="50%"><stop offset="0%" stop-color="#FFF8F0"/><stop offset="100%" stop-color="#F5EDE0"/></radialGradient></defs>
  <rect width="1024" height="1024" rx="32" fill="url(#bg)"/>
  <text x="512" y="115" text-anchor="middle" font-size="64" font-weight="bold" fill="#4A3728" font-family="sans-serif">32=扇儿</text>
  <text x="512" y="165" text-anchor="middle" font-size="30" fill="#8B7355" font-family="sans-serif">3像扇骨弯弯撑，2是扇面圆圆展</text>
  <!-- 扇子 -->
  <path d="M512 800 L350 350 Q420 300 512 280 Q604 300 674 350Z" fill="#FFF8E1" stroke="#8D6E63" stroke-width="3"/>
  <path d="M512 800 L370 370 Q420 320 512 300 Q604 320 654 370Z" fill="#FFECB3" opacity="0.5"/>
  <!-- 扇骨 - 3形弯 -->
  <line x1="512" y1="800" x2="390" y2="380" stroke="#8D6E63" stroke-width="4"/>
  <line x1="512" y1="800" x2="512" y2="295" stroke="#8D6E63" stroke-width="4"/>
  <line x1="512" y1="800" x2="634" y2="380" stroke="#8D6E63" stroke-width="4"/>
  <line x1="512" y1="800" x2="430" y2="320" stroke="#A1887F" stroke-width="2.5"/>
  <line x1="512" y1="800" x2="594" y2="320" stroke="#A1887F" stroke-width="2.5"/>
  <!-- 扇面 - 2形弧 -->
  <path d="M350 350 Q520 250 674 350" fill="none" stroke="#F9A825" stroke-width="3"/>
  <!-- 中国风花纹 -->
  <path d="M470 520 Q490 490 520 480 Q550 490 540 530" fill="none" stroke="#F9A825" stroke-width="2" opacity="0.5"/>
  <path d="M440 580 Q470 550 520 540 Q570 550 560 590" fill="none" stroke="#F9A825" stroke-width="2" opacity="0.4"/>
  <!-- 扇坠 -->
  <circle cx="512" cy="815" r="6" fill="#F44336"/>
  <line x1="512" y1="815" x2="512" y2="845" stroke="#F44336" stroke-width="2"/>
  <circle cx="512" cy="850" r="5" fill="#F44336" opacity="0.7"/>
</svg>