<svg xmlns="http://www.w3.org/2000/svg" viewBox="0 0 1024 1024">
  <defs><radialGradient id="bg" cx="50%" cy="50%"><stop offset="0%" stop-color="#FFF8F0"/><stop offset="100%" stop-color="#F5EDE0"/></radialGradient></defs>
  <rect width="1024" height="1024" rx="32" fill="url(#bg)"/>
  <text x="512" y="115" text-anchor="middle" font-size="64" font-weight="bold" fill="#4A3728" font-family="sans-serif">33=山川</text>
  <text x="512" y="165" text-anchor="middle" font-size="30" fill="#8B7355" font-family="sans-serif">3像山脉弯弯连，3是峰峦层层叠</text>
  <!-- 天空 -->
  <rect x="60" y="210" width="904" height="140" rx="10" fill="#E3F2FD" opacity="0.3"/>
  <circle cx="800" cy="280" r="35" fill="#FFD54F" opacity="0.6"/>
  <!-- 远山 -->
  <path d="M60 600 L150 380 L250 480 L350 350 L450 450 L550 320 L650 420 L750 370 L850 460 L964 400 L964 860 L60 860Z" fill="#A5D6A7" opacity="0.5"/>
  <!-- 近山 - 3形曲线 -->
  <path d="M60 750 L200 420 L350 550 L500 400 L650 520 L800 380 L964 500 L964 860 L60 860Z" fill="#66BB6A"/>
  <path d="M60 780 L200 480 L350 590 L500 460 L650 560 L800 450 L964 550 L964 860 L60 860Z" fill="#4CAF50"/>
  <!-- 雪顶 -->
  <path d="M480 400 L500 380 L520 400 L510 430 L490 430Z" fill="white" opacity="0.6"/>
  <!-- 河流 -->
  <path d="M350 550 Q320 630 360 700 Q400 770 370 860" fill="none" stroke="#42A5F5" stroke-width="25" stroke-linecap="round" opacity="0.4"/>
  <!-- 松树 -->
  <path d="M250 550 L230 600 L270 600Z" fill="#2E7D32"/>
  <path d="M250 530 L225 580 L275 580Z" fill="#388E3C"/>
  <path d="M250 510 L220 560 L280 560Z" fill="#43A047"/>
  <rect x="246" y="600" width="8" height="20" fill="#5D4037"/>
  <!-- 云朵 -->
  <ellipse cx="300" cy="320" rx="50" ry="18" fill="white" opacity="0.4"/>
  <ellipse cx="600" cy="300" rx="45" ry="15" fill="white" opacity="0.35"/>
  <text x="180" y="250" font-size="28" opacity="0.25">⛰</text>
</svg>