<svg xmlns="http://www.w3.org/2000/svg" viewBox="0 0 1024 1024">
  <defs><radialGradient id="bg" cx="50%" cy="50%"><stop offset="0%" stop-color="#FFF8F0"/><stop offset="100%" stop-color="#F5EDE0"/></radialGradient></defs>
  <rect width="1024" height="1024" rx="32" fill="url(#bg)"/>
  <text x="512" y="115" text-anchor="middle" font-size="64" font-weight="bold" fill="#4A3728" font-family="sans-serif">34=杉树</text>
  <text x="512" y="165" text-anchor="middle" font-size="30" fill="#8B7355" font-family="sans-serif">3像树冠弯弯层，4是树干三角直</text>
  <!-- 地面 -->
  <rect x="100" y="780" width="824" height="150" rx="10" fill="#AED581" opacity="0.3"/>
  <!-- 树干 -->
  <rect x="490" y="500" width="44" height="300" rx="8" fill="#6D4C41"/>
  <rect x="498" y="500" width="8" height="300" fill="#8D6E63" opacity="0.4"/>
  <!-- 树冠层1 - 3形弯 -->
  <path d="M360 540 L512 360 L664 540Z" fill="#388E3C"/>
  <path d="M370 540 L512 380 L654 540Z" fill="#43A047"/>
  <!-- 树冠层2 -->
  <path d="M390 460 L512 300 L634 460Z" fill="#2E7D32"/>
  <path d="M400 460 L512 320 L624 460Z" fill="#388E3C"/>
  <!-- 树冠层3 - 4形三角顶 -->
  <path d="M430 380 L512 230 L594 380Z" fill="#1B5E20"/>
  <path d="M442 380 L512 250 L582 380Z" fill="#2E7D32"/>
  <!-- 树顶星 -->
  <text x="512" y="250" text-anchor="middle" font-size="30" fill="#FFD54F">★</text>
  <!-- 装饰球 -->
  <circle cx="460" cy="420" r="10" fill="#F44336"/>
  <circle cx="560" cy="440" r="10" fill="#2196F3"/>
  <circle cx="490" cy="500" r="9" fill="#FF9800"/>
  <circle cx="540" cy="520" r="9" fill="#9C27B0"/>
  <!-- 小草 -->
  <path d="M300 800 L310 770 L320 800" fill="none" stroke="#66BB6A" stroke-width="2"/>
  <path d="M680 810 L690 780 L700 810" fill="none" stroke="#66BB6A" stroke-width="2"/>
  <text x="200" y="750" font-size="22" opacity="0.2">🌲</text>
</svg>