<svg xmlns="http://www.w3.org/2000/svg" viewBox="0 0 1024 1024">
  <defs><radialGradient id="bg" cx="50%" cy="50%"><stop offset="0%" stop-color="#FFF8F0"/><stop offset="100%" stop-color="#F5EDE0"/></radialGradient></defs>
  <rect width="1024" height="1024" rx="32" fill="url(#bg)"/>
  <text x="512" y="115" text-anchor="middle" font-size="64" font-weight="bold" fill="#4A3728" font-family="sans-serif">41=司仪</text>
  <text x="512" y="165" text-anchor="middle" font-size="30" fill="#8B7355" font-family="sans-serif">4像话筒三角立，1是身姿直直站</text>
  <ellipse cx="512" cy="850" rx="200" ry="25" fill="#BCAAA4" opacity="0.2"/>
  <!-- 讲台 -->
  <rect x="350" y="600" width="324" height="200" rx="10" fill="#8D6E63"/>
  <rect x="360" y="610" width="304" height="180" rx="6" fill="#A1887F"/>
  <!-- 4形话筒架 -->
  <line x1="512" y1="380" x2="512" y2="600" stroke="#546E7A" stroke-width="8"/>
  <!-- 话筒头 - 4形三角 -->
  <ellipse cx="512" cy="380" rx="28" ry="35" fill="#37474F"/>
  <ellipse cx="512" cy="380" rx="20" ry="25" fill="#455A64"/>
  <!-- 人物 - 1形直直 -->
  <circle cx="512" cy="280" r="35" fill="#FFCCBC"/>
  <rect x="482" y="315" width="60" height="100" rx="10" fill="#1565C0"/>
  <!-- 领结 -->
  <path d="M490 340 L512 350 L534 340 L512 360Z" fill="#F44336"/>
  <!-- 手臂 -->
  <rect x="442" y="340" width="40" height="12" rx="4" fill="#1565C0"/>
  <rect x="542" y="340" width="70" height="12" rx="4" fill="#1565C0"/>
  <!-- 声波 -->
  <path d="M560 330 Q580 310 560 290" fill="none" stroke="#78909C" stroke-width="2" opacity="0.4"/>
  <path d="M575 340 Q600 310 575 270" fill="none" stroke="#78909C" stroke-width="2" opacity="0.3"/>
  <text x="700" y="320" font-size="28" fill="#78909C" opacity="0.3">♪</text>
</svg>