<svg xmlns="http://www.w3.org/2000/svg" viewBox="0 0 1024 1024">
  <defs><radialGradient id="bg" cx="50%" cy="50%"><stop offset="0%" stop-color="#FFF8F0"/><stop offset="100%" stop-color="#F5EDE0"/></radialGradient></defs>
  <rect width="1024" height="1024" rx="32" fill="url(#bg)"/>
  <text x="512" y="115" text-anchor="middle" font-size="64" font-weight="bold" fill="#4A3728" font-family="sans-serif">58=尾巴</text>
  <text x="512" y="165" text-anchor="middle" font-size="30" fill="#8B7355" font-family="sans-serif">5像尾巴弯弯翘，8是毛尾蓬蓬卷</text>
  <!-- 松鼠身体 -->
  <ellipse cx="380" cy="620" rx="90" ry="100" fill="#8D6E63"/>
  <ellipse cx="370" cy="600" rx="70" ry="80" fill="#A1887F"/>
  <!-- 尾巴 - 5形弯曲 -->
  <path d="M430 560 Q500 460 550 430 Q600 400 620 430 Q640 460 610 510 Q580 560 540 580 Q500 600 460 590" fill="#BF360C" opacity="0.7"/>
  <path d="M435 565 Q500 475 545 445 Q590 415 610 440 Q625 465 598 505 Q570 545 535 565 Q500 580 465 572" fill="#E64A19" opacity="0.6"/>
  <!-- 尾巴蓬松纹理 -->
  <path d="M480 480 Q520 470 550 500" fill="none" stroke="#FF8A65" stroke-width="2" opacity="0.4"/>
  <path d="M460 520 Q500 500 530 530" fill="none" stroke="#FF8A65" stroke-width="2" opacity="0.4"/>
  <!-- 头部 -->
  <circle cx="360" cy="520" r="40" fill="#A1887F"/>
  <!-- 耳朵 -->
  <ellipse cx="345" cy="480" rx="12" ry="20" fill="#8D6E63"/>
  <ellipse cx="378" cy="478" rx="12" ry="20" fill="#8D6E63"/>
  <!-- 眼睛 -->
  <circle cx="378" cy="515" r="7" fill="white"/>
  <circle cx="380" cy="515" r="3.5" fill="#2C1810"/>
  <!-- 鼻子 -->
  <circle cx="398" cy="530" r="5" fill="#3E2723"/>
  <!-- 前爪 -->
  <ellipse cx="340" cy="600" rx="15" ry="10" fill="#8D6E63"/>
  <!-- 腿部 -->
  <ellipse cx="330" cy="710" rx="25" ry="30" fill="#8D6E63"/>
  <ellipse cx="430" cy="710" rx="25" ry="30" fill="#8D6E63"/>
</svg>