<svg xmlns="http://www.w3.org/2000/svg" viewBox="0 0 1024 1024">
  <defs><radialGradient id="bg" cx="50%" cy="50%"><stop offset="0%" stop-color="#FFF8F0"/><stop offset="100%" stop-color="#F5EDE0"/></radialGradient></defs>
  <rect width="1024" height="1024" rx="32" fill="url(#bg)"/>
  <text x="512" y="115" text-anchor="middle" font-size="64" font-weight="bold" fill="#4A3728" font-family="sans-serif">63=绿伞</text>
  <text x="512" y="165" text-anchor="middle" font-size="30" fill="#8B7355" font-family="sans-serif">6像伞面圆圆撑，3是伞柄弯弯握</text>
  <!-- 伞柄 - 3形弯 -->
  <path d="M512 510 L512 750 Q512 800 540 830" fill="none" stroke="#689F38" stroke-width="8" stroke-linecap="round"/>
  <circle cx="540" cy="835" r="10" fill="#558B2F"/>
  <!-- 伞面 - 6形圆 -->
  <path d="M200 500 Q360 410 512 410 Q664 410 824 500 Q664 460 512 460 Q360 460 200 500Z" fill="#66BB6A" opacity="0.8"/>
  <path d="M220 490 Q370 400 512 400 Q654 400 804 490 Q654 450 512 450 Q370 450 220 490Z" fill="#81C784" opacity="0.6"/>
  <!-- 伞骨 -->
  <line x1="512" y1="410" x2="230" y2="495" stroke="#4CAF50" stroke-width="2" opacity="0.4"/>
  <line x1="512" y1="410" x2="310" y2="470" stroke="#4CAF50" stroke-width="2" opacity="0.4"/>
  <line x1="512" y1="410" x2="410" y2="455" stroke="#4CAF50" stroke-width="2" opacity="0.4"/>
  <line x1="512" y1="410" x2="614" y2="455" stroke="#4CAF50" stroke-width="2" opacity="0.4"/>
  <line x1="512" y1="410" x2="714" y2="470" stroke="#4CAF50" stroke-width="2" opacity="0.4"/>
  <line x1="512" y1="410" x2="794" y2="495" stroke="#4CAF50" stroke-width="2" opacity="0.4"/>
  <!-- 伞尖 -->
  <circle cx="512" cy="405" r="8" fill="#FFD54F"/>
  <!-- 雨滴 -->
  <path d="M280 550 Q282 570 280 580" fill="none" stroke="#90CAF9" stroke-width="2" opacity="0.4"/>
  <path d="M340 540 Q342 565 340 578" fill="none" stroke="#90CAF9" stroke-width="2" opacity="0.35"/>
  <path d="M680 545 Q682 565 680 578" fill="none" stroke="#90CAF9" stroke-width="2" opacity="0.35"/>
</svg>