<svg xmlns="http://www.w3.org/2000/svg" viewBox="0 0 1024 1024">
  <defs><radialGradient id="bg" cx="50%" cy="50%"><stop offset="0%" stop-color="#FFF8F0"/><stop offset="100%" stop-color="#F5EDE0"/></radialGradient></defs>
  <rect width="1024" height="1024" rx="32" fill="url(#bg)"/>
  <text x="512" y="115" text-anchor="middle" font-size="64" font-weight="bold" fill="#4A3728" font-family="sans-serif">71=机翼</text>
  <text x="512" y="165" text-anchor="middle" font-size="30" fill="#8B7355" font-family="sans-serif">7像机翼弯弯展，1是机身直直飞</text>
  <circle cx="760" cy="280" r="35" fill="#FFD54F" opacity="0.5"/>
  <!-- 机身 - 1形 -->
  <ellipse cx="500" cy="520" rx="30" ry="200" fill="#546E7A"/>
  <ellipse cx="500" cy="450" rx="25" ry="130" fill="#78909C"/>
  <!-- 机翼 - 7形弯 -->
  <path d="M300 450 Q400 440 500 450 L500 480 Q400 470 300 480Z" fill="#455A64"/>
  <path d="M340 430 Q420 420 500 435 L500 450 Q420 435 340 445Z" fill="#607D8B"/>
  <!-- 右翼 -->
  <path d="M700 450 Q600 440 500 450 L500 480 Q600 470 700 480Z" fill="#455A64"/>
  <!-- 尾翼 -->
  <path d="M450 700 Q500 680 550 700 L540 720 Q500 700 460 720Z" fill="#455A64"/>
  <rect x="495" y="300" width="10" height="30" rx="3" fill="#FFD54F"/>
  <text x="500" y="360" text-anchor="middle" font-size="16" fill="white" opacity="0.5">✈</text>
  <path d="M350 400 Q400 380 450 400" fill="none" stroke="#90A4AE" stroke-width="1.5" opacity="0.3"/>
</svg>