<svg xmlns="http://www.w3.org/2000/svg" viewBox="0 0 1024 1024">
  <defs><radialGradient id="bg" cx="50%" cy="50%"><stop offset="0%" stop-color="#FFF8F0"/><stop offset="100%" stop-color="#F5EDE0"/></radialGradient></defs>
  <rect width="1024" height="1024" rx="32" fill="url(#bg)"/>
  <text x="512" y="115" text-anchor="middle" font-size="64" font-weight="bold" fill="#4A3728" font-family="sans-serif">90=酒瓶</text>
  <text x="512" y="165" text-anchor="middle" font-size="30" fill="#8B7355" font-family="sans-serif">9像瓶口弯弯流，0是瓶肚圆圆鼓</text>
  <!-- 桌布 -->
  <rect x="200" y="720" width="624" height="180" rx="10" fill="#5D4037" opacity="0.3"/>
  <!-- 瓶身 - 0形圆 -->
  <ellipse cx="512" cy="630" rx="100" ry="120" fill="#2E7D32"/>
  <ellipse cx="512" cy="630" rx="85" ry="105" fill="#388E3C"/>
  <ellipse cx="480" cy="600" rx="35" ry="25" fill="#4CAF50" opacity="0.3"/>
  <!-- 瓶颈 - 9形弯 -->
  <path d="M456 530 Q460 480 480 450 Q500 420 520 440 Q540 460 520 490 Q510 510 512 530" fill="none" stroke="#2E7D32" stroke-width="25" stroke-linecap="round"/>
  <rect x="500" y="415" width="20" height="50" rx="4" fill="#2E7D32"/>
  <!-- 瓶口 -->
  <ellipse cx="510" cy="410" rx="18" ry="8" fill="#1B5E20"/>
  <!-- 标签 -->
  <rect x="460" y="620" width="104" height="70" rx="6" fill="#FFF9C4"/>
  <text x="512" y="648" text-anchor="middle" font-size="20" fill="#2E7D32" font-weight="bold">酒</text>
  <text x="512" y="672" text-anchor="middle" font-size="14" fill="#4CAF50">90</text>
  <!-- 高光 -->
  <line x1="445" y1="550" x2="445" y2="650" stroke="white" stroke-width="4" opacity="0.15"/>
  <!-- 小酒杯 -->
  <ellipse cx="680" cy="650" rx="25" ry="8" fill="#E0E0E0"/>
  <rect x="660" y="580" width="14" height="65" rx="4" fill="#E0E0E0" opacity="0.5"/>
  <ellipse cx="667" cy="580" rx="12" ry="5" fill="#E0E0E0"/>
  <ellipse cx="667" cy="590" rx="12" ry="20" fill="#BBDEFB" opacity="0.3"/>
</svg>